<svg width="785" height="290" viewBox="0 0 785 290" fill="none" xmlns="http://www.w3.org/2000/svg">
<path d="M264.042 143.714C265.014 110.957 272.252 79.8191 292.34 51.7758C310.401 26.5654 334.965 8.37817 368.795 2.34028C415.972 -6.07681 454.019 8.54987 483.725 40.7547C503.027 61.6768 513.227 86.2127 517.815 112.682C522.975 142.467 521.246 171.904 511.186 200.716C499.731 233.538 479.592 260.968 444.321 277.807C397.79 300.025 341.2 289.69 305.631 252.89C284.404 230.93 272.884 205.135 267.919 176.981C265.981 165.977 265.293 154.804 264.038 143.706L264.042 143.714ZM320.461 142.667C320.893 168.577 323.055 193.063 330.656 216.945C335.519 232.222 342.222 246.759 354.565 258.72C375.522 279.025 408.241 279.286 429.719 259.435C439.365 250.519 445.627 239.838 450.318 228.416C458.226 209.174 461.861 189.192 463.553 168.846C466.287 136 464.692 103.472 454.614 71.5778C449.788 56.3093 442.745 41.9075 430.174 30.1138C408.901 10.1523 376.108 10.185 354.909 30.1955C345.63 38.956 339.489 49.3844 334.896 60.5199C323.776 87.4636 320.94 115.54 320.466 142.671L320.461 142.667Z" fill="#EC9FFF"/>
<path d="M198.549 3.17007V204.473H244.884V220.395H198.949C197.024 242.691 202.496 263.817 207.684 285.349H140.043C145.659 264.169 150.149 242.973 149.368 220.502H0C1.4458 218.306 2.24076 217.019 3.1194 215.78C52.5695 146.179 102.052 76.5896 151.405 6.93098C153.422 4.08577 155.486 3.03517 159.252 3.09649C172.115 3.30497 184.983 3.17416 198.549 3.17416V3.17007ZM149.164 204.346V41.6785L148.29 41.3965C109.727 95.5331 71.1604 149.666 32.1981 204.35H149.164V204.346Z" fill="#EC9FFF"/>
<path d="M689.052 220.305H540.227C541.487 218.334 542.217 217.084 543.063 215.894C592.63 146.129 642.224 76.3764 691.73 6.57474C693.501 4.08109 695.337 3.04276 698.768 3.0959C711.78 3.29212 724.802 3.17357 738.325 3.17357V204.423H785V220.333H738.539C737.661 242.756 742.198 263.968 747.958 285.393H680.289C685.319 264.046 690.818 242.928 689.047 220.301L689.052 220.305ZM689.108 41.8864C688.801 41.8087 688.494 41.727 688.192 41.6493C649.681 95.7083 611.169 149.763 572.314 204.305H689.112V41.8864H689.108Z" fill="#EC9FFF"/>
</svg>
