<svg width="130" height="36" viewBox="0 0 130 36" fill="none" xmlns="http://www.w3.org/2000/svg">
<g clip-path="url(#clip0_1669_94)">
<path d="M12.2998 26.8203C12.2998 28.0572 12.1706 29.2303 11.9121 30.336C11.6537 31.4417 11.1938 32.4124 10.5286 33.2482C9.86348 34.084 8.96647 34.7549 7.83381 35.2497C6.70115 35.7482 5.27202 35.9956 3.55023 35.9956C3.05611 35.9956 2.46698 35.9581 1.77902 35.8869C1.09106 35.8156 0.498125 35.7032 0.0078125 35.5608L0.452515 28.7131C0.722377 28.7843 0.977035 28.833 1.20889 28.8593C1.44454 28.8818 1.64599 28.8967 1.81703 28.8967C2.45557 28.8967 2.94209 28.7206 3.27656 28.3683C3.60724 28.016 3.77448 27.4163 3.77448 26.5655V16.6969C3.77448 15.6961 4.3142 14.7741 5.1922 14.2719L12.3074 10.209V26.8166L12.2998 26.8203Z" fill="#7757FF"/>
<path d="M19.2594 0.363281H11.8857L12.0644 10.6329L18.4346 6.44262C19.0162 6.06032 19.3583 5.4119 19.3469 4.72226L19.2594 0.363281Z" fill="#7757FF"/>
<path d="M36.8271 17.8824C36.8271 19.5353 36.5268 21.0008 35.9225 22.2901C35.3181 23.5757 34.5047 24.6626 33.4861 25.5509C32.4637 26.4392 31.2816 27.1101 29.9399 27.5711C28.5982 28.0321 27.188 28.2645 25.7095 28.2645C24.231 28.2645 22.8589 28.0321 21.5171 27.5711C20.1754 27.1101 19.001 26.4354 17.9899 25.5509C16.9789 24.6664 16.1731 23.5794 15.5726 22.2901C14.9682 21.0045 14.668 19.5353 14.668 17.8824C14.668 16.2295 14.9682 14.8053 15.5726 13.5309C16.1769 12.2566 16.9827 11.1809 17.9899 10.3076C19.001 9.4343 20.1754 8.7709 21.5171 8.32113C22.8589 7.87137 24.2576 7.64648 25.7095 7.64648C27.1614 7.64648 28.5944 7.87137 29.9399 8.32113C31.2816 8.7709 32.4637 9.43056 33.4861 10.3076C34.5085 11.1809 35.3219 12.2566 35.9225 13.5309C36.5268 14.8053 36.8271 16.2557 36.8271 17.8824ZM25.7095 14.749C24.7745 14.749 24.0181 15.0639 23.4366 15.6973C22.8589 16.3307 22.57 17.0691 22.57 17.9199C22.57 18.8194 22.8665 19.584 23.4556 20.2137C24.0447 20.8471 24.8087 21.1619 25.7437 21.1619C26.6787 21.1619 27.4427 20.8471 28.0318 20.2137C28.621 19.584 28.9174 18.8194 28.9174 17.9199C28.9174 17.0691 28.6172 16.3307 28.0128 15.6973C27.4085 15.0676 26.6407 14.749 25.7057 14.749H25.7095Z" fill="#7757FF"/>
<path d="M60.2021 17.8824C60.2021 19.5353 59.9018 21.0008 59.2975 22.2901C58.6931 23.5757 57.8797 24.6626 56.8611 25.5509C55.8387 26.4392 54.6566 27.1101 53.3149 27.5711C51.9732 28.0321 50.563 28.2645 49.0845 28.2645C47.606 28.2645 46.2339 28.0321 44.8921 27.5711C43.5504 27.1101 42.376 26.4354 41.3649 25.5509C40.3539 24.6664 39.5481 23.5794 38.9476 22.2901C38.3432 21.0045 38.043 19.5353 38.043 17.8824C38.043 16.2295 38.3432 14.8053 38.9476 13.5309C39.5519 12.2566 40.3577 11.1809 41.3649 10.3076C42.376 9.4343 43.5504 8.7709 44.8921 8.32113C46.2339 7.87137 47.6326 7.64648 49.0845 7.64648C50.5364 7.64648 51.9694 7.87137 53.3149 8.32113C54.6566 8.7709 55.8387 9.43056 56.8611 10.3076C57.8835 11.1809 58.6931 12.2566 59.2975 13.5309C59.9018 14.8053 60.2021 16.2557 60.2021 17.8824ZM49.0845 14.749C48.1495 14.749 47.3931 15.0639 46.8116 15.6973C46.2339 16.3307 45.945 17.0691 45.945 17.9199C45.945 18.8194 46.2415 19.584 46.8306 20.2137C47.4197 20.8471 48.1837 21.1619 49.1187 21.1619C50.0537 21.1619 50.8177 20.8471 51.4068 20.2137C51.996 19.584 52.2924 18.8194 52.2924 17.9199C52.2924 17.0691 51.9922 16.3307 51.3878 15.6973C50.7835 15.0676 50.0157 14.749 49.0807 14.749H49.0845Z" fill="#7757FF"/>
<path d="M62.1522 8.37692H70.461V10.4908H70.5332C71.0235 9.78619 71.7532 9.17526 72.7225 8.65053C73.6917 8.12955 74.8015 7.86719 76.0558 7.86719C77.4051 7.86719 78.5302 8.11081 79.4234 8.59431C80.3204 9.08156 81.0312 9.70373 81.5595 10.4683C82.0878 11.2329 82.4565 12.0875 82.6656 13.0357C82.8746 13.984 82.9772 14.9285 82.9772 15.8768V27.5294H74.4443V17.331C74.4443 16.3603 74.2884 15.6819 73.9844 15.2921C73.6765 14.9023 73.2128 14.7111 72.6008 14.7111C72.0345 14.7111 71.5708 14.936 71.2173 15.3858C70.86 15.8355 70.6814 16.4839 70.6814 17.3348V27.5332H62.1484V8.37692H62.1522Z" fill="#7757FF"/>
<path d="M94.0945 19.1938V27.5332H85.5615V0H94.0945V15.6968H94.2047L98.8228 8.37689H108.72L102.441 17.0086L108.682 27.5332H98.7467L94.2047 19.1938H94.0945Z" fill="#7757FF"/>
<path d="M129.177 17.773C129.177 19.4259 128.876 20.8914 128.272 22.1807C127.668 23.4663 126.854 24.5532 125.836 25.4415C124.813 26.3298 123.631 27.0007 122.289 27.4617C120.948 27.9227 119.538 28.1551 118.059 28.1551C116.581 28.1551 115.208 27.9227 113.867 27.4617C112.525 27.0007 111.351 26.3261 110.34 25.4415C109.329 24.557 108.523 23.4701 107.922 22.1807C107.318 20.8952 107.018 19.4259 107.018 17.773C107.018 16.1201 107.318 14.6959 107.922 13.4215C108.527 12.1472 109.332 11.0715 110.34 10.1982C111.351 9.32493 112.525 8.66152 113.867 8.21176C115.208 7.76199 116.607 7.53711 118.059 7.53711C119.511 7.53711 120.944 7.76199 122.289 8.21176C123.631 8.66152 124.813 9.32118 125.836 10.1982C126.858 11.0715 127.668 12.1472 128.272 13.4215C128.876 14.6959 129.177 16.1464 129.177 17.773ZM118.059 14.6397C117.124 14.6397 116.368 14.9545 115.786 15.5879C115.208 16.2213 114.92 16.9597 114.92 17.8105C114.92 18.71 115.216 19.4746 115.805 20.1043C116.394 20.7377 117.158 21.0526 118.093 21.0526C119.028 21.0526 119.792 20.7377 120.381 20.1043C120.971 19.4746 121.267 18.71 121.267 17.8105C121.267 16.9597 120.967 16.2213 120.362 15.5879C119.758 14.9582 118.99 14.6397 118.055 14.6397H118.059Z" fill="#7757FF"/>
</g>
<defs>
<clipPath id="clip0_1669_94">
<rect width="129.176" height="36" fill="white"/>
</clipPath>
</defs>
</svg>
