<svg width="326" height="329" viewBox="0 0 326 329" fill="none" xmlns="http://www.w3.org/2000/svg">
<rect width="326" height="329" fill="#FF1521"/>
<mask id="mask0_1475_12620" style="mask-type:alpha" maskUnits="userSpaceOnUse" x="0" y="0" width="326" height="329">
<rect width="326" height="329" fill="#FF1521"/>
</mask>
<g mask="url(#mask0_1475_12620)">
<path d="M325.948 379.517L325.634 380.044L289.178 380.044C289.063 379.846 288.947 379.665 288.848 379.467L271.322 349.246C271.207 349.031 271.075 348.834 270.959 348.619C271.141 348.323 271.306 348.01 271.488 347.713L288.501 318.381C288.732 317.986 288.964 317.59 289.195 317.195L325.651 317.195L325.964 317.722L325.964 316.124L325.651 316.651L289.195 316.651C288.964 316.256 288.732 315.86 288.518 315.465L271.455 286.05C271.289 285.77 271.141 285.507 270.975 285.227C277.054 274.746 283.133 264.282 289.212 253.802L325.667 253.802L325.981 254.329L325.981 189.338L325.667 189.865L289.212 189.865C289.063 189.602 288.914 189.338 288.766 189.091L271.24 158.886C271.157 158.738 271.075 158.589 270.992 158.441C277.071 147.961 283.149 137.497 289.228 127.016L325.684 127.016L325.997 127.544L325.997 125.945L325.684 126.473L289.228 126.473C289.063 126.176 288.881 125.879 288.716 125.583L271.19 95.3612C271.124 95.2458 271.058 95.147 270.992 95.0316C277.071 84.5513 283.149 74.0874 289.228 63.6071L325.684 63.6071L325.997 64.1344L325.997 5.78693e-05L288.766 5.13595e-05C282.687 10.4804 276.608 20.9442 270.53 31.4246L234.074 31.4246C234.074 31.4246 234.041 31.3751 234.024 31.3422L215.805 3.86027e-05L178.408 3.2064e-05C172.329 10.4804 166.25 20.9442 160.172 31.4245L123.716 31.4245C123.716 31.4245 123.683 31.3751 123.667 31.3586L105.893 0.675638C105.761 0.444939 105.629 0.230718 105.497 1.93158e-05L68.0997 1.27771e-05C62.021 10.4803 55.9423 20.9442 49.8637 31.4245L13.4081 31.4245L-4.81138 2.88812e-08L-4.97656 0L-4.97657 62.5854L-4.97657 64.1838L-0.698376 71.5497C2.29141 76.7075 5.29771 81.8817 8.28749 87.0395L12.9456 95.081L6.15665 106.781C4.68653 109.318 3.21642 111.856 1.7463 114.394L-4.97658 125.978L-4.97658 127.577L1.7463 139.161C3.21641 141.699 4.68653 144.236 6.15664 146.774L12.9456 158.474L6.15664 170.174C4.70304 172.695 3.23292 175.2 1.77933 177.721L-4.9766 189.371L-4.9766 190.969L-4.97661 252.764L-4.97661 254.362L-0.731445 261.695C2.27486 266.869 5.28116 272.06 8.28746 277.234L12.9456 285.259L-4.97662 316.14L-4.97662 317.739L-0.714938 325.105C2.27484 330.262 5.26463 335.42 8.25441 340.578L12.929 348.636L-4.97663 379.517L-4.97663 380.324L-4.82797 380.324L13.4081 348.899L49.8636 348.899C55.9423 359.38 62.0044 369.86 68.0996 380.324L105.48 380.324C105.711 379.929 105.943 379.517 106.174 379.121L123.7 348.899L160.155 348.9C166.234 359.38 172.296 369.86 178.391 380.324L215.788 380.324L234.024 348.9L270.48 348.9C276.559 359.38 282.621 369.86 288.716 380.324L325.948 380.324L325.948 379.517ZM178.408 190.162C172.329 200.642 166.25 211.106 160.172 221.587L123.716 221.587C123.716 221.587 123.683 221.537 123.667 221.504L105.662 190.459C105.612 190.36 105.546 190.261 105.497 190.162C110.105 182.219 114.714 174.26 119.322 166.318L123.716 158.737L160.172 158.737C166.25 169.218 172.313 179.698 178.408 190.162ZM119.322 229.71L123.716 222.13L160.172 222.13C166.25 232.611 172.313 243.091 178.408 253.555C172.329 264.035 166.25 274.499 160.172 284.979L123.716 284.979C123.716 284.979 123.683 284.93 123.667 284.897L105.711 253.95C105.629 253.818 105.563 253.687 105.48 253.555C110.089 245.612 114.697 237.653 119.306 229.71L119.322 229.71ZM177.252 256.603L178.87 253.818L215.326 253.819C221.405 264.299 227.467 274.779 233.562 285.243C227.483 295.723 221.405 306.187 215.326 316.668L178.87 316.668C178.87 316.668 178.837 316.618 178.821 316.585L160.816 285.556C160.75 285.457 160.7 285.342 160.634 285.243C166.168 275.702 171.718 266.144 177.252 256.603ZM270.48 284.979L234.024 284.979C234.024 284.979 233.991 284.913 233.975 284.897L216.036 253.967C215.954 253.835 215.871 253.687 215.805 253.555C220.48 245.497 225.154 237.422 229.845 229.364L234.041 222.13L270.496 222.13C276.575 232.611 282.637 243.091 288.732 253.555C282.654 264.035 276.575 274.499 270.496 284.979L270.48 284.979ZM270.48 158.738C276.559 169.218 282.621 179.698 288.716 190.162C282.637 200.642 276.559 211.106 270.48 221.587L234.024 221.587C234.024 221.587 233.991 221.537 233.975 221.504L215.97 190.475C215.904 190.376 215.854 190.261 215.788 190.162C220.463 182.104 225.138 174.03 229.829 165.972L234.024 158.737L270.48 158.738ZM215.326 189.898L178.87 189.898C178.87 189.898 178.837 189.849 178.821 189.816C178.821 189.816 160.717 158.622 160.634 158.474C164.764 151.372 178.87 127.049 178.87 127.049L215.326 127.049C221.388 137.53 227.467 148.01 233.562 158.474C227.483 168.954 221.405 179.418 215.326 189.898ZM121.751 35.3629L123.716 31.9683L160.172 31.9683C166.234 42.4487 172.313 52.929 178.408 63.3929C172.329 73.8732 166.25 84.337 160.172 94.8174L123.716 94.8174C123.716 94.8174 123.683 94.7679 123.667 94.735L105.662 63.6895C105.612 63.5906 105.546 63.4917 105.497 63.3928C110.915 54.0495 116.333 44.7062 121.751 35.3629ZM178.87 63.6565L215.326 63.6565C221.405 74.1368 227.467 84.6172 233.562 95.081C227.483 105.561 221.405 116.025 215.326 126.506L178.87 126.506C178.87 126.506 178.804 126.374 178.755 126.308L160.816 95.3941C160.75 95.2952 160.684 95.1799 160.634 95.081C166.713 84.6007 172.792 74.1368 178.87 63.6565ZM270.48 94.8174L234.024 94.8174C234.024 94.8174 233.991 94.7679 233.975 94.735L215.97 63.706C215.904 63.6071 215.854 63.4917 215.788 63.3929C221.272 53.9342 226.756 44.4755 232.24 35.0169L234.008 31.9683L270.463 31.9684C276.526 42.4487 282.604 52.929 288.7 63.3929C282.621 73.8732 276.542 84.3371 270.463 94.8174L270.48 94.8174ZM13.4081 94.8173L-4.81139 63.3928L13.4081 31.9683L49.8637 31.9683C55.8267 42.2509 61.7898 52.55 67.7693 62.8326L68.0997 63.3928L67.7693 63.9531C61.7898 74.2357 55.8267 84.5183 49.8637 94.8173L13.4081 94.8173ZM68.5622 63.6565L105.018 63.6565C111.014 73.9885 116.993 84.3205 122.989 94.6526L123.237 95.081L122.577 96.218C116.713 106.319 110.865 116.421 105.001 126.522L68.5457 126.522C68.5457 126.522 68.4631 126.39 68.43 126.324L50.4914 95.3941C50.4418 95.2952 50.3757 95.1964 50.3262 95.0975C56.4048 84.6172 62.4835 74.1533 68.5622 63.673L68.5622 63.6565ZM62.5991 137.332L68.5622 127.049L105.018 127.049C111.03 137.431 117.043 147.796 123.072 158.177L123.237 158.474L122.989 158.902C116.993 169.234 110.997 179.566 105.018 189.898L68.5622 189.898C68.5622 189.898 68.5291 189.832 68.5126 189.816L50.5739 158.886C50.4913 158.754 50.4253 158.622 50.3427 158.49C54.4227 151.438 58.5192 144.401 62.5991 137.348L62.5991 137.332ZM-4.81141 190.162L13.4246 158.737L49.8802 158.737C55.8928 169.102 61.9054 179.467 67.918 189.832L68.0997 190.162L67.7693 190.722C61.7897 201.005 55.8267 211.304 49.8636 221.587L13.4081 221.587L-4.81141 190.162ZM13.4246 284.979L-4.81143 253.555L13.4246 222.13L49.8802 222.13C55.8432 232.413 61.8062 242.712 67.7858 252.995L68.1162 253.555L67.8354 254.033C61.8393 264.348 55.8597 274.664 49.8801 284.979L13.4081 284.979L13.4246 284.979ZM50.8712 284.353L68.5787 253.818L105.034 253.818C111.063 264.216 117.092 274.614 123.138 285.012L123.27 285.243L122.956 285.787C116.977 296.086 111.014 306.368 105.034 316.668L68.5787 316.668L50.7556 285.952C50.6235 285.721 50.4748 285.474 50.3427 285.243C50.5078 284.946 50.6895 284.65 50.8547 284.353L50.8712 284.353ZM121.486 351.717C116.002 361.16 110.535 370.618 105.051 380.06L68.5952 380.06L50.706 349.213C50.5904 349.015 50.4748 348.817 50.3757 348.636C50.5243 348.372 50.6895 348.109 50.8382 347.845L68.6117 317.211L105.067 317.211C111.047 327.527 117.026 337.842 123.006 348.141L123.287 348.636L121.503 351.717L121.486 351.717ZM215.359 380.06L178.903 380.06L160.866 348.965C160.799 348.85 160.733 348.735 160.667 348.636C165.474 340.331 170.297 332.042 175.104 323.737L178.887 317.211L215.342 317.211C221.421 327.692 227.483 338.172 233.578 348.636C227.5 359.116 221.421 369.58 215.342 380.06L215.359 380.06Z" fill="#FF009C"/>
</g>
</svg>
