<svg width="252" height="831" viewBox="0 0 252 831" fill="none" xmlns="http://www.w3.org/2000/svg">
<g clip-path="url(#clip0_2013_39236)">
<rect x="-1" width="254" height="831" fill="#FFB5B9"/>
<path d="M20.2151 830.99C15.0065 829.215 9.62338 827.867 4.63789 825.578C-14.9355 816.596 -26.7203 800.592 -32.9861 779.836C-33.7427 777.323 -34.2955 774.743 -34.926 772.183C-34.9939 771.892 -34.926 771.572 -34.926 771.028C-34.1015 771.271 -33.4129 771.416 -32.7727 771.659C-25.2363 774.598 -17.6901 777.488 -10.2119 780.573C-9.24195 780.97 -8.24293 782.212 -7.95195 783.269C-6.14786 789.836 -4.17887 796.402 1.00061 800.97C3.91043 803.541 7.38283 805.655 10.9231 807.168C16.2287 809.438 20.6613 807.75 23.736 802.746C25.0842 800.553 26.1706 798.08 26.8495 795.578C30.157 783.376 28.8185 771.125 26.9659 758.448C25.7826 759.36 24.9678 760.097 24.0561 760.679C20.4479 762.968 16.4711 763.172 12.475 762.435C0.82601 760.282 -9.03827 754.307 -17.8841 746.508C-34.5477 731.833 -45.3722 713.172 -51.9872 691.775C-55.3044 681.047 -57.3316 670.038 -56.7108 658.729C-56.5071 654.927 -55.8088 650.998 -54.5188 647.429C-51.5895 639.291 -45.7311 636.187 -37.4187 637.768C-30.8813 639.01 -25.0714 642.094 -19.3681 645.431C0.738729 657.216 16.7136 673.423 29.0804 693.569C42.1746 714.888 50.4482 738.031 54.2794 762.92C55.9574 773.851 56.9759 784.811 55.7343 795.878C54.9778 802.561 53.3774 808.992 50.3706 815.015C46.1707 823.415 39.6915 828.788 30.7584 830.971H20.2248L20.2151 830.99ZM-29.4264 678.583L-29.2324 678.622C-29.1742 679.612 -29.1645 680.601 -29.0578 681.581C-27.6902 693.695 -24.5088 705.266 -19.1838 716.169C-15.5854 723.54 -10.9393 730.087 -4.32435 734.879C0.816334 738.603 6.30618 741.61 12.8436 741.484C16.2966 741.416 18.9057 739.564 19.3034 736.091C19.7302 732.405 19.8562 728.477 19.1094 724.888C17.0434 714.966 13.7844 705.412 9.40998 696.295C4.97735 687.041 -0.502786 678.525 -8.90247 672.647C-12.53 670.106 -16.6717 668.127 -20.8424 666.721C-24.5282 665.48 -27.4089 667.613 -28.4274 671.532C-29.019 673.811 -29.116 676.226 -29.4361 678.583H-29.4264Z" stroke="#800029" stroke-width="2.2716" stroke-miterlimit="10"/>
<path d="M85.7732 830.99C84.1922 825.917 82.1748 820.932 81.1369 815.743C78.5375 802.755 76.4133 789.671 74.0273 776.635C71.0398 760.282 67.9069 743.958 64.968 727.595C63.29 718.273 61.8836 708.875 62.7372 699.34C63.0184 696.159 63.5907 692.948 64.5025 689.903C67.034 681.445 72.9021 676.391 80.9817 674.248C95.6181 670.349 109.925 670.708 123.291 679.01C131.884 684.355 137.937 692.075 142.146 701.406C142.243 701.61 142.214 701.872 142.272 702.347C141.564 702.619 140.856 702.958 140.119 703.162C134.571 704.685 128.994 706.091 123.475 707.74C121.448 708.341 120.575 707.565 119.469 705.936C117.345 702.793 115.182 699.544 112.476 696.974C108.033 692.774 102.485 692.143 96.7433 693.462C91.622 694.636 88.8383 698.361 88.5279 703.443C88.1884 708.991 88.2466 714.665 88.9935 720.165C90.0798 728.147 91.9421 736.014 93.4843 743.928C93.591 744.462 93.8432 744.966 93.9111 745.141C96.1225 742.367 98.0236 739.108 100.691 736.809C110.478 728.351 128.829 727.624 140.458 734.879C150.352 741.048 156.53 750.311 160.226 761.319C166.356 779.583 166.269 797.828 158.024 815.423C155.415 820.98 151.399 825.83 148.024 831H85.8023L85.7732 830.99ZM140.032 791.135C139.828 781.446 138.625 772.968 135.075 764.947C130.458 754.52 121.467 749.981 111.234 753.075C107.432 754.219 104.609 756.586 102.864 760.272C100.516 765.228 99.9828 770.582 100.293 775.927C100.798 784.714 101.603 793.492 102.543 802.241C103.184 808.206 104.076 814.191 106.986 819.564C109.527 824.259 113.417 826.47 118.645 826.121C124.067 825.762 128.373 823.192 131.758 818.934C138.412 810.554 139.838 800.544 140.032 791.135Z" stroke="#800029" stroke-width="2.2716" stroke-miterlimit="10"/>
<path d="M215.123 545.75C209.041 541.919 206.811 536.73 208.595 530.134C209.4 527.156 210.632 524.198 212.213 521.579C220.38 507.971 231.437 497.292 244.27 488.504C254.958 481.181 266.52 476.07 279.304 474.159C286.627 473.063 293.979 472.888 301.118 475.061C315.706 479.513 321.855 492.074 316.501 507.282C310.216 525.129 298.189 537.273 280.739 543.519C279.1 544.101 277.442 544.625 275.453 545.285C276.22 545.915 276.724 546.371 277.257 546.759C284.367 551.909 286.452 559.077 284.881 567.574C283.174 576.798 279.013 584.936 274.018 592.647C264.862 606.779 251.68 614.936 236.2 619.475C224.27 622.977 212.068 624.917 199.643 625.052C192.426 625.13 185.278 624.344 178.673 620.988C167.45 615.275 162.436 604.616 164.929 591.939C167.615 578.263 175.394 568.165 186.054 560.144C193.988 554.169 202.805 550.008 212.097 546.856C212.921 546.575 213.736 546.255 215.123 545.74V545.75ZM240.138 553.422C229.362 553.878 219.672 557.176 211.398 564.315C203.251 571.327 197.596 580.047 195.782 591.008C194.434 599.145 198.071 604.693 205.957 605.935C216.723 607.623 226.724 605.266 235.463 598.243C241.389 593.491 245.385 587.157 248.867 580.435C251.379 575.566 253.804 570.648 254.512 565.052C255.182 559.746 253.096 556.187 248.101 554.809C245.511 554.101 242.795 553.869 240.138 553.422ZM251.244 536.38C261.864 536.002 270.914 532.219 278.13 524.13C283.465 518.146 288.043 511.599 290.031 503.577C291.622 497.146 288.984 493.402 282.582 492.588C276.54 491.812 270.856 493.121 265.502 496.021C257.315 500.464 251.098 507.156 246.035 514.964C243.581 518.747 241.379 522.85 239.866 527.118C238.392 531.269 240.371 534.237 244.454 535.255C246.675 535.808 248.984 536.022 251.244 536.39V536.38Z" stroke="#800029" stroke-width="2.2716" stroke-miterlimit="10"/>
<path d="M57.4778 300.161C37.7395 300.52 23.1225 289.501 9.00989 277.687C-0.126946 270.044 -6.87773 260.384 -10.3307 248.57C-13.5315 237.609 -13.2017 226.727 -8.84671 216.174C-3.82242 204.001 7.0894 197.725 20.8238 198.763C30.6299 199.51 39.6115 203.002 48.2828 207.502C60.7174 213.953 71.7068 222.333 79.767 234.186C94.3452 255.631 97.1774 279.074 89.6992 303.876C85.7515 316.98 79.6312 328.978 70.2907 338.959C62.7155 347.058 53.7823 352.926 43.2973 356.126C32.6376 359.385 22.2884 358.512 12.4435 353.129C1.07576 346.912 -9.3608 339.395 -16.8972 328.347C-23.2794 318.997 -25.132 308.531 -23.3764 297.3C-23.163 295.942 -22.5811 295.311 -21.2911 295.786C-12.7459 298.939 -4.2007 302.101 4.30568 305.369C4.81004 305.563 5.00403 306.708 5.27562 307.445C5.34351 307.629 5.16892 307.911 5.12042 308.153C2.78287 319.22 6.90511 326.815 17.9139 332.169C22.0071 334.167 26.3524 333.614 30.5037 331.956C38.3894 328.823 44.2478 323.013 48.9811 316.058C51.8909 311.771 54.1412 306.999 56.6436 302.411C57.051 301.664 57.245 300.791 57.4778 300.141V300.161ZM66.9056 260.19C67.1578 239.258 54.4904 225.243 37.7201 221.227C31.2409 219.675 25.8674 222.391 23.2195 228.667C21.8325 231.935 20.9014 235.524 20.397 239.055C19.2234 247.26 19.5919 255.427 23.8112 262.779C29.8442 273.284 39.2914 279.152 50.3875 282.265C57.051 284.137 62.182 281.247 64.248 274.419C65.635 269.831 66.0618 264.942 66.9153 260.18L66.9056 260.19Z" stroke="#800029" stroke-width="2.2716" stroke-miterlimit="10"/>
<path d="M315.126 40.8479C307.395 40.295 299.868 39.7615 292.157 39.2087C291.895 37.1039 291.721 34.9021 291.343 32.7392C290.47 27.6858 288.481 23.3113 283.321 21.7206C277.987 20.0814 273.03 21.2551 268.772 25.0087C264.301 28.9564 262.012 34.3493 260.178 39.9167C256.24 51.847 254.64 64.2622 253.263 76.7163C253.069 78.5106 252.943 80.305 253.156 82.2546C254.621 79.8783 255.988 77.434 257.569 75.145C262.535 67.9771 269.092 63.4184 277.676 62.2254C286.813 60.9547 294.931 65.1352 299.839 73.6415C303.69 80.3147 305.271 87.6766 305.979 95.2906C307.182 108.181 305.94 120.946 304.029 133.661C302.216 145.718 299.587 157.58 295.397 169.016C290.615 182.061 284.136 194.031 273.117 202.547C269.092 205.66 264.475 208.24 259.761 210.035C250.033 213.74 242.661 210.364 237.85 200.82C233.689 192.576 231.982 183.613 230.828 174.525C228.044 152.556 228.374 130.499 229.771 108.472C230.653 94.4371 231.779 80.402 233.389 66.4349C235.038 52.1574 238.112 38.1708 244.514 25.2124C249.849 14.417 257.327 5.87182 268.743 1.93386C292.526 -6.26214 313.186 7.802 315.096 32.8071C315.29 35.4162 315.126 38.0447 315.126 40.8576V40.8479ZM249.247 142.614C249.509 148.86 249.625 155.117 250.081 161.344C250.479 166.766 251.236 172.168 253.757 177.066C256.192 181.8 260.208 183.225 264.524 180.393C267.143 178.676 269.82 176.426 271.352 173.73C273.913 169.258 276.124 164.399 277.531 159.423C281.992 143.7 283.486 127.502 283.758 111.178C283.845 105.562 283.37 99.9851 281.343 94.6893C279.306 89.3546 275.067 86.5321 270.179 87.5311C268.045 87.9676 265.843 88.8211 264.029 90.0432C257.831 94.2431 255.271 100.945 253.331 107.91C250.169 119.238 249.606 130.897 249.237 142.614H249.247Z" stroke="#800029" stroke-width="2.2716" stroke-miterlimit="10"/>
<path d="M51.2251 607.4C55.745 607.807 59.2174 608.205 62.7092 608.418C66.6859 608.651 70.6724 608.816 74.6588 608.816C76.395 608.816 77.1322 609.291 77.5105 611.163C78.0342 613.714 78.7908 616.304 79.945 618.612C84.8529 628.418 98.0538 629.495 104.562 620.737C108.519 615.402 110.421 609.078 112.642 602.899C116.425 592.405 120.217 581.92 124 571.434C124.155 571.008 124.271 570.571 124.562 569.659C122.167 571.299 120.246 572.715 118.219 573.985C109.48 579.446 100.091 582.395 89.7705 581.706C72.1176 580.542 62.7674 566.672 63.5336 550.59C64.2999 534.771 72.1661 522.598 83.0682 512.288C93.7473 502.19 106.667 496.458 120.537 492.879C138.083 488.349 155.891 486.739 173.913 488.553C176.658 488.825 179.412 489.601 182.012 490.561C189.015 493.151 191.896 498.815 190.499 506.39C189.092 513.995 185.669 520.697 181.672 527.06C174.989 537.7 167.899 548.049 161.178 558.66C151.837 573.403 145.193 589.553 138.811 605.819C135.241 614.907 131.323 623.782 125.61 631.774C110.401 653.026 70.0807 656.421 55.3764 621.318C53.6015 617.08 52.7091 612.444 51.2251 607.39V607.4ZM143.951 504.916L143.893 505.168C141.905 505.333 139.907 505.372 137.938 505.663C123.951 507.768 112.719 514.926 103.728 525.983C98.9268 531.89 94.8724 538.272 93.1847 545.944C92.4282 549.378 92.2147 552.841 94.0479 556.042C96.6377 560.561 101.002 561.26 105.493 561.26C116.638 561.26 125.775 556.323 133.796 548.718C140.198 542.647 145.183 535.391 149.907 527.971C152.555 523.82 154.844 519.329 156.648 514.722C158.248 510.609 156.502 507.554 152.39 506.361C149.664 505.575 146.774 505.372 143.961 504.916H143.951Z" stroke="#800029" stroke-width="2.2716" stroke-miterlimit="10"/>
<path d="M192.813 144.864C190.757 148.056 189.127 151.218 186.935 153.866C177.42 165.369 162.706 165.932 152.163 155.34C143.821 146.95 139.553 136.397 137.633 124.806C134.335 104.981 135.722 85.475 143.23 66.8037C150.533 48.6367 163.637 37.0459 182.221 32.4096C195.587 29.073 204.86 34.4853 209.942 48.3457C213.191 57.2207 214.394 66.5127 215.044 75.9114C216.46 96.4741 215.325 117.017 214.384 137.551C213.696 152.411 212.58 167.26 211.125 182.052C209.845 195.088 207.478 207.969 202.124 220.006C199.36 226.213 195.81 231.907 190.058 235.593C181.455 241.112 172.464 240.374 163.753 236.087C150.737 229.666 143.152 218.26 138.525 204.584C137.138 200.5 136.537 196.126 135.645 191.868C135.48 191.102 135.625 190.277 135.625 189.297C136.324 189.346 136.857 189.336 137.371 189.433C144.112 190.704 150.834 192.062 157.594 193.235C159.175 193.507 159.699 194.167 159.874 195.738C160.407 200.607 161.552 205.301 164.277 209.414C166.314 212.479 169.078 214.399 172.658 215.04C176.993 215.816 180.252 214.186 182.696 210.452C186.324 204.913 187.76 198.56 188.904 192.168C191.649 176.911 192.289 161.441 192.949 145.98C192.958 145.67 192.871 145.359 192.803 144.855L192.813 144.864ZM194.025 92.9824C193.831 88.54 193.948 84.0589 193.366 79.6748C192.706 74.6408 191.872 69.5486 190.31 64.7571C188.109 57.9772 183.249 55.9597 176.799 58.5301C175.044 59.2284 173.346 60.2566 171.872 61.469C166.528 65.8531 164.229 72.0801 162.667 78.6369C159.893 90.2762 159.719 102.1 160.582 113.972C160.989 119.501 161.872 124.952 164.355 129.947C167.197 135.66 171.901 138.026 177.381 136.106C179.864 135.233 182.289 133.691 184.258 131.887C187.992 128.472 189.952 123.826 191.29 118.919C193.608 110.432 194.074 101.741 194.025 92.9727V92.9824Z" stroke="#800029" stroke-width="2.2716" stroke-miterlimit="10"/>
<path d="M78.0881 363.712C80.6003 366.563 83.0736 369.337 85.5178 372.14C88.1852 375.205 90.7749 378.338 93.5101 381.335C94.5771 382.499 94.4995 383.256 93.5393 384.43C91.5897 386.816 89.5916 389.202 87.9912 391.84C84.8389 397.039 85.062 401.937 88.3113 406.079C90.8428 409.299 94.2667 410.327 98.1174 410.191C106.236 409.9 113.21 406.311 119.815 401.869C130.804 394.478 139.485 384.672 146.847 373.556C147.022 373.295 147.109 372.965 147.332 372.451C146.905 372.509 146.595 372.47 146.372 372.596C134.597 379.221 123.472 374.449 116.478 363.062C111.202 354.478 109.272 344.798 108.418 334.885C106.895 317.145 108.341 299.657 113.491 282.595C115.314 276.562 117.836 270.869 122.143 266.262C128.952 258.987 137.487 257.687 146.663 259.191C154.849 260.539 162.56 263.449 169.718 267.755C181.115 274.603 186.809 285.321 188.739 298.473C191.251 315.612 188.535 332.159 182.939 348.251C175.228 370.424 163.714 390.201 146.944 406.389C136.129 416.835 123.831 424.789 109.32 428.533C98.4957 431.326 87.7875 431.316 77.671 425.662C63.7524 417.883 58.3886 403.663 63.4517 388.067C66.2839 379.347 71.1821 371.84 76.7593 364.788C77.0406 364.429 77.477 364.197 78.059 363.721L78.0881 363.712ZM169.767 308.92C169.398 306.155 169.166 302.693 168.419 299.346C167.274 294.177 164.558 289.996 160.029 287.261C151.813 282.314 144.713 284.37 140.64 293.245C134.946 305.651 132.133 318.891 130.901 332.489C130.407 337.96 130.921 343.372 133.704 348.27C138.69 357.038 148.244 358.552 155.295 351.519C157.381 349.434 159.292 346.99 160.698 344.371C166.488 333.585 168.884 321.82 169.757 308.91L169.767 308.92Z" stroke="#800029" stroke-width="2.2716" stroke-miterlimit="10"/>
<path d="M28.8077 85.9691C28.7495 100.266 26.6836 113.186 22.959 125.746C20.9415 132.546 18.41 139.306 15.1219 145.533C8.87548 157.386 -1.4835 162.934 -14.3546 163.361C-29.3111 163.865 -43.9572 161.663 -58.0504 156.464C-73.2106 150.877 -80.0584 138.976 -81.038 122.866C-81.6976 111.934 -80.3881 101.168 -78.5064 90.4599C-75.6354 74.1552 -72.454 57.899 -66.4501 42.4673C-64.2095 36.7058 -61.3579 31.0608 -57.9825 25.9298C-50.2715 14.1838 -39.2918 10.0421 -26.0424 13.5048C3.75419 21.2935 25.6361 43.6506 28.4295 78.6557C28.6526 81.4492 28.7204 84.2523 28.8077 85.9594V85.9691ZM0.912276 69.7129C0.669791 67.0164 0.5534 62.8748 -0.115858 58.8398C-2.03634 47.2879 -7.89478 38.9852 -19.0879 35.377C-26.0327 33.1364 -31.4837 34.6689 -35.3053 41.0705C-38.1569 45.8523 -40.4557 51.1385 -42.0949 56.5023C-46.7603 71.7595 -49.2725 87.5404 -51.6003 103.331C-52.7642 111.236 -53.6663 119.17 -52.5703 127.182C-51.6294 134.039 -48.8457 139.587 -42.2889 142.361C-37.7981 144.262 -33.1327 145.116 -28.2636 144.699C-24.5584 144.379 -21.3188 143.002 -18.4962 140.509C-12.9288 135.611 -9.99957 128.947 -7.83661 122.08C-2.64742 105.552 0.213909 88.5491 0.902567 69.7226L0.912276 69.7129Z" stroke="#800029" stroke-width="2.2716" stroke-miterlimit="10"/>
<path d="M280.27 289.337C279.718 312.014 275.818 334.071 269.562 355.72C264.732 372.432 258.495 388.523 249.407 403.315C238.641 420.832 224.926 434.925 205.905 442.675C194.945 447.147 183.596 449.377 171.753 448.049C170.803 447.942 169.852 447.777 168.931 447.544C160.318 445.42 156.642 439.474 159.416 430.764C161.346 424.712 164.12 418.892 166.991 413.218C174.45 398.475 182.5 384.042 189.678 369.163C197.825 352.257 203.422 334.255 209.29 316.389C214.44 300.724 219.436 284.973 227.399 270.501C232.171 261.82 237.952 253.954 246.507 248.881C249.649 247.019 253.083 245.506 256.565 244.487C263.151 242.576 268.728 244.992 272.521 250.86C276.72 257.358 278.243 264.769 279.068 272.344C279.679 277.979 279.892 283.673 280.27 289.337ZM260.377 292.111C260.251 290.016 260.222 287.873 259.969 285.748C259.717 283.624 259.436 281.481 258.835 279.444C256.982 273.188 252.763 271.665 247.389 275.166C246.856 275.516 246.342 275.913 245.847 276.33C240.939 280.433 238.253 286.146 236.293 292.024C231.967 305.011 228.088 318.154 224.198 331.297C219.348 347.689 214.062 363.906 207.108 379.484C202.132 390.628 196.758 401.569 191.783 412.714C190.367 415.885 189.435 419.377 188.834 422.82C188.262 426.128 189.891 427.893 193.15 428.359C194.246 428.514 195.381 428.514 196.487 428.407C202.559 427.835 207.796 425.168 212.569 421.395C220.949 414.77 227.04 406.128 232.317 396.855C243.257 377.641 249.921 356.748 254.771 335.157C257.952 321.006 260.183 306.728 260.387 292.111H260.377Z" stroke="#800029" stroke-width="2.2716" stroke-miterlimit="10"/>
<path d="M267.735 666.11C260.16 667.39 252.943 668.603 245.426 669.873C245.203 668.215 244.922 666.799 244.844 665.373C244.67 662.172 244.815 658.933 244.427 655.771C244.078 652.977 245.291 652.298 247.609 651.91C255.349 650.61 262.856 648.418 270.034 645.111C270.47 644.907 270.975 644.791 271.334 644.49C277.008 639.815 283.623 640.94 290.102 641.221C293.021 641.348 295.931 641.59 298.337 641.755C298.337 647.284 298.395 652.434 298.327 657.594C298.123 672.114 299.859 686.469 301.79 700.805C304.622 721.833 308.036 742.823 307.58 764.132C307.357 774.637 306.038 785.122 305.252 795.626C305.146 797.12 304.535 797.488 303.118 797.459C295.873 797.304 288.618 797.227 281.363 797.236C279.694 797.236 279.112 796.916 279.365 795.035C281.789 776.286 281.169 757.537 278.482 738.894C276.086 722.299 273.109 705.79 270.548 689.224C269.529 682.657 268.947 676.013 268.162 669.408C268.036 668.37 267.89 667.332 267.735 666.12V666.11Z" stroke="#800029" stroke-width="2.2716" stroke-miterlimit="10"/>
<path d="M36.43 495.168C30.4358 492.51 24.6356 489.93 18.3601 487.147C22.8121 481.22 26.7888 475.915 30.7462 470.638C33.3941 471.734 35.7123 472.83 38.1177 473.655C45.4699 476.157 52.9675 476.341 60.5816 475.168C62.0656 474.935 63.7532 475.139 65.1791 475.633C70.3003 477.418 75.3537 479.426 80.766 481.472C37.6134 525.517 22.0458 578.825 30.8335 640.611C29.6695 640.397 28.8257 640.358 28.0595 640.077C20.911 637.497 13.7819 634.868 6.63348 632.279C5.02337 631.697 4.31531 630.698 4.14072 628.855C1.97775 605.896 2.8895 583.112 7.99139 560.629C13.2291 537.545 22.4532 516.235 35.4989 496.71C35.8578 496.177 36.1585 495.614 36.43 495.149V495.168Z" stroke="#800029" stroke-width="2.2716" stroke-miterlimit="10"/>
<path d="M108.676 214.71C102.75 211.829 97.1337 209.113 91.5275 206.378C88.3558 204.836 85.252 203.138 82.0221 201.751C80.3538 201.034 79.9852 200.064 80.1695 198.356C81.896 182.323 83.7388 166.3 85.2229 150.247C87.3179 127.454 89.1414 104.641 91.0619 81.8376C91.1492 80.79 91.0716 79.7328 91.0716 78.3943C89.3548 78.2973 87.7059 78.3264 86.0861 78.1033C81.3625 77.4437 76.6389 76.7357 71.9347 75.9112C71.3042 75.8045 70.3149 74.854 70.3343 74.3399C70.6446 68.9374 71.1296 63.5348 71.5758 57.9867C74.0103 58.1128 76.2897 58.2777 78.5788 58.3262C86.2219 58.4911 93.2637 56.687 99.3743 51.6627C100.141 51.0323 101.401 50.8383 102.439 50.8286C106.746 50.7898 111.052 51.0129 115.349 50.8965C117.376 50.8383 117.987 51.4881 117.91 53.5541C117.018 76.7551 116.533 99.9851 115.252 123.167C113.885 148.065 111.799 172.915 110.034 197.794C109.694 202.556 109.403 207.319 109.064 212.081C109.006 212.857 108.841 213.623 108.676 214.729V214.71Z" stroke="#800029" stroke-width="2.2716" stroke-miterlimit="10"/>
<path d="M186.568 824.686C187.053 821.592 187.47 818.944 187.878 816.286C191.05 795.607 190.293 774.957 185.87 754.637C181.447 734.336 175.996 714.268 170.991 694.103C170.283 691.251 169.527 688.409 168.77 685.509C162.844 688.234 157.14 690.853 151.146 693.598C150.719 692.463 150.341 691.687 150.137 690.863C148.983 686.071 147.907 681.251 146.704 676.469C146.355 675.063 146.704 674.355 147.974 673.811C156.898 669.97 164.502 664.296 170.574 656.469C171.001 655.926 171.612 655.353 172.233 655.189C177.936 653.695 183.668 652.298 189.779 650.766C190.002 652.696 190.225 654.354 190.39 656.023C191.835 670.223 194.958 684.073 198.256 697.914C202.572 716.052 207.112 734.151 210.788 752.435C214.716 771.998 215.288 791.834 212.621 811.698C212.349 813.706 211.564 814.85 209.624 815.588C202.815 818.168 196.074 820.971 189.313 823.687C188.528 823.997 187.732 824.269 186.559 824.705L186.568 824.686Z" stroke="#800029" stroke-width="2.2716" stroke-miterlimit="10"/>
</g>
<defs>
<clipPath id="clip0_2013_39236">
<rect width="252" height="831" fill="white"/>
</clipPath>
</defs>
</svg>
