<svg width="25" height="16" viewBox="0 0 25 16" fill="none" xmlns="http://www.w3.org/2000/svg">
<path d="M0.429626 1C0.429626 0.447715 0.877342 0 1.42963 0H23.4296C23.9819 0 24.4296 0.447715 24.4296 1C24.4296 1.55228 23.9819 2 23.4296 2H1.42963C0.877342 2 0.429626 1.55228 0.429626 1Z" fill="#7757FF"/>
<path d="M0.429626 8C0.429626 7.44772 0.877342 7 1.42963 7H23.4296C23.9819 7 24.4296 7.44772 24.4296 8C24.4296 8.55228 23.9819 9 23.4296 9H1.42963C0.877342 9 0.429626 8.55228 0.429626 8Z" fill="#7757FF"/>
<path d="M0.429626 15C0.429626 14.4477 0.877342 14 1.42963 14H23.4296C23.9819 14 24.4296 14.4477 24.4296 15C24.4296 15.5523 23.9819 16 23.4296 16H1.42963C0.877342 16 0.429626 15.5523 0.429626 15Z" fill="#7757FF"/>
</svg>
