<svg width="144" height="759" viewBox="0 0 144 759" fill="none" xmlns="http://www.w3.org/2000/svg">
<rect y="-3.12476" width="144" height="762" fill="#FF9495"/>
<mask id="mask0_1572_202134" style="mask-type:alpha" maskUnits="userSpaceOnUse" x="0" y="-4" width="144" height="763">
<rect x="0.683425" y="-2.44133" width="142.633" height="760.633" fill="#6D052A" stroke="#FF9495" stroke-width="1.36685"/>
</mask>
<g mask="url(#mask0_1572_202134)">
<path d="M-31.264 758.866C-36.0838 757.224 -41.0651 755.976 -45.6784 753.858C-63.7907 745.547 -74.6958 730.737 -80.4939 711.53C-81.194 709.205 -81.7056 706.818 -82.289 704.449C-82.3518 704.179 -82.289 703.883 -82.289 703.38C-81.5261 703.605 -80.8888 703.739 -80.2965 703.964C-73.3226 706.683 -66.3397 709.358 -59.4197 712.212C-58.5222 712.58 -57.5977 713.729 -57.3285 714.707C-55.6591 720.784 -53.837 726.86 -49.0442 731.087C-46.3516 733.466 -43.1384 735.423 -39.8624 736.823C-34.9529 738.923 -30.8511 737.361 -28.0059 732.73C-26.7584 730.702 -25.7531 728.413 -25.1248 726.097C-22.0642 714.806 -23.3028 703.47 -25.0171 691.739C-26.1121 692.583 -26.8661 693.265 -27.7098 693.804C-31.0486 695.922 -34.7285 696.11 -38.4263 695.428C-49.2058 693.436 -58.3337 687.907 -66.5193 680.691C-81.9389 667.111 -91.9555 649.842 -98.0767 630.043C-101.146 620.116 -103.022 609.929 -102.448 599.464C-102.259 595.945 -101.613 592.31 -100.419 589.007C-97.7087 581.477 -92.2876 578.605 -84.5957 580.068C-78.5463 581.217 -73.17 584.071 -67.8925 587.158C-49.2865 598.063 -34.5041 613.061 -23.0605 631.703C-10.9438 651.431 -3.28776 672.846 0.25751 695.877C1.81025 705.992 2.75266 716.134 1.60382 726.375C0.903737 732.559 -0.577199 738.51 -3.35956 744.084C-7.2459 751.856 -13.2414 756.829 -21.5078 758.848H-31.255L-31.264 758.866ZM-77.1999 617.836L-77.0204 617.872C-76.9666 618.788 -76.9576 619.703 -76.8589 620.61C-75.5933 631.82 -72.6494 642.527 -67.7219 652.616C-64.3921 659.437 -60.0929 665.495 -53.9717 669.929C-49.2147 673.376 -44.1347 676.158 -38.0853 676.041C-34.89 675.979 -32.4757 674.264 -32.1077 671.051C-31.7128 667.641 -31.5961 664.006 -32.2872 660.685C-34.199 651.503 -37.2147 642.662 -41.2626 634.225C-45.3643 625.663 -50.4354 617.782 -58.208 612.343C-61.5648 609.992 -65.3973 608.161 -69.2567 606.859C-72.6674 605.71 -75.3331 607.685 -76.2755 611.311C-76.823 613.42 -76.9127 615.655 -77.2089 617.836H-77.1999Z" stroke="#6D052A" stroke-width="1.85535" stroke-miterlimit="10"/>
<path d="M29.4002 758.866C27.9372 754.172 26.0703 749.559 25.11 744.757C22.7046 732.739 20.7389 720.631 18.531 708.568C15.7666 693.436 12.8676 678.33 10.148 663.189C8.59527 654.563 7.29386 645.866 8.08369 637.043C8.34397 634.1 8.87353 631.129 9.71721 628.31C12.0598 620.484 17.4899 615.808 24.9664 613.824C38.5102 610.216 51.7489 610.548 64.1169 618.231C72.0691 623.177 77.6697 630.321 81.565 638.955C81.6548 639.144 81.6279 639.386 81.6817 639.826C81.0265 640.077 80.3713 640.391 79.6892 640.58C74.5553 641.989 69.3944 643.29 64.2875 644.816C62.4116 645.373 61.6038 644.655 60.5806 643.147C58.615 640.239 56.6135 637.232 54.1094 634.853C49.9986 630.967 44.8648 630.384 39.5513 631.604C34.8123 632.69 32.2364 636.137 31.9492 640.84C31.6351 645.974 31.6889 651.225 32.38 656.314C33.3853 663.7 35.1085 670.979 36.5356 678.303C36.6344 678.797 36.8677 679.264 36.9305 679.425C38.9769 676.858 40.7361 673.843 43.2043 671.715C52.2605 663.889 69.2419 663.216 80.0033 669.929C89.1582 675.638 94.8755 684.209 98.2951 694.396C103.968 711.297 103.887 728.179 96.2577 744.461C93.8433 749.604 90.1275 754.091 87.0041 758.875H29.4271L29.4002 758.866ZM79.6084 721.986C79.4199 713.02 78.307 705.176 75.022 697.753C70.7497 688.104 62.4296 683.904 52.9605 686.767C49.4422 687.826 46.8304 690.016 45.2148 693.427C43.0428 698.013 42.5491 702.968 42.8363 707.913C43.303 716.045 44.048 724.167 44.9186 732.263C45.511 737.783 46.3367 743.321 49.0293 748.293C51.3809 752.637 54.98 754.684 59.8177 754.361C64.835 754.029 68.82 751.65 71.9524 747.71C78.1095 739.955 79.4289 730.693 79.6084 721.986Z" stroke="#6D052A" stroke-width="1.85535" stroke-miterlimit="10"/>
<path d="M149.096 494.919C143.468 491.373 141.404 486.571 143.056 480.468C143.801 477.713 144.94 474.975 146.403 472.552C153.961 459.959 164.193 450.078 176.067 441.946C185.958 435.169 196.656 430.439 208.486 428.671C215.262 427.657 222.066 427.495 228.672 429.506C242.171 433.626 247.861 445.249 242.907 459.322C237.091 475.837 225.961 487.074 209.814 492.854C208.298 493.393 206.763 493.877 204.923 494.488C205.632 495.071 206.099 495.493 206.592 495.852C213.171 500.618 215.101 507.251 213.647 515.113C212.067 523.649 208.217 531.179 203.594 538.314C195.122 551.392 182.924 558.94 168.599 563.14C157.56 566.38 146.269 568.175 134.771 568.301C128.094 568.373 121.479 567.646 115.367 564.54C104.982 559.254 100.342 549.39 102.648 537.659C105.135 525.004 112.333 515.661 122.197 508.238C129.539 502.709 137.697 498.859 146.296 495.942C147.059 495.681 147.812 495.385 149.096 494.91V494.919ZM172.243 502.018C162.272 502.44 153.305 505.491 145.649 512.097C138.11 518.587 132.877 526.655 131.199 536.798C129.951 544.328 133.317 549.462 140.614 550.611C150.577 552.172 159.831 549.991 167.917 543.493C173.401 539.095 177.099 533.234 180.321 527.014C182.646 522.509 184.89 517.958 185.545 512.779C186.164 507.87 184.235 504.576 179.612 503.301C177.216 502.646 174.703 502.431 172.243 502.018ZM182.52 486.248C192.348 485.898 200.722 482.398 207.4 474.912C212.336 469.375 216.573 463.316 218.413 455.894C219.885 449.943 217.443 446.478 211.52 445.724C205.928 445.006 200.668 446.218 195.714 448.902C188.139 453.012 182.386 459.205 177.7 466.431C175.43 469.931 173.392 473.728 171.992 477.677C170.628 481.518 172.459 484.265 176.237 485.207C178.293 485.719 180.429 485.916 182.52 486.257V486.248Z" stroke="#6D052A" stroke-width="1.85535" stroke-miterlimit="10"/>
<path d="M3.21818 267.662C-15.0467 267.994 -28.5726 257.798 -41.6318 246.866C-50.0866 239.793 -56.3334 230.854 -59.5287 219.922C-62.4905 209.78 -62.1854 199.709 -58.1554 189.944C-53.5062 178.68 -43.4089 172.873 -30.6998 173.833C-21.6257 174.524 -13.3145 177.755 -5.29049 181.92C6.21594 187.889 16.385 195.643 23.8436 206.611C37.3335 226.456 39.9544 248.149 33.0343 271.099C29.3814 283.225 23.7179 294.328 15.0746 303.563C8.06487 311.058 -0.201465 316.488 -9.90384 319.45C-19.7678 322.465 -29.3445 321.658 -38.4545 316.676C-48.9736 310.923 -58.6311 303.967 -65.605 293.744C-71.5108 285.092 -73.2251 275.407 -71.6006 265.014C-71.4031 263.757 -70.8646 263.174 -69.6709 263.614C-61.7635 266.531 -53.8562 269.457 -45.9848 272.481C-45.5181 272.661 -45.3386 273.72 -45.0873 274.402C-45.0245 274.573 -45.186 274.833 -45.2309 275.057C-47.394 285.298 -43.5794 292.326 -33.3924 297.28C-29.6048 299.129 -25.5838 298.618 -21.7424 297.083C-14.4454 294.184 -9.02424 288.808 -4.64426 282.372C-1.95165 278.405 0.130633 273.989 2.44628 269.744C2.82324 269.053 3.00277 268.245 3.21818 267.644V267.662ZM11.9422 230.674C12.1756 211.305 0.453735 198.336 -15.0647 194.62C-21.0602 193.184 -26.0326 195.697 -28.4829 201.504C-29.7663 204.529 -30.628 207.85 -31.0947 211.117C-32.1807 218.71 -31.8397 226.267 -27.9354 233.071C-22.3527 242.791 -13.6107 248.221 -3.34285 251.102C2.82323 252.834 7.57121 250.16 9.48297 243.841C10.7664 239.596 11.1614 235.072 11.9512 230.665L11.9422 230.674Z" stroke="#6D052A" stroke-width="1.85535" stroke-miterlimit="10"/>
<path d="M-2.56836 551.966C1.61416 552.343 4.82734 552.711 8.05848 552.909C11.7384 553.124 15.4272 553.276 19.1161 553.276C20.7227 553.276 21.4048 553.716 21.7549 555.449C22.2395 557.809 22.9396 560.205 24.0077 562.342C28.5492 571.416 40.7647 572.412 46.7872 564.307C50.4492 559.371 52.2083 553.519 54.2637 547.802C57.7641 538.09 61.2734 528.388 64.7738 518.685C64.9174 518.29 65.0252 517.887 65.2944 517.043C63.0775 518.56 61.3004 519.87 59.4245 521.046C51.3377 526.099 42.6496 528.828 33.0998 528.19C16.7646 527.113 8.11234 514.279 8.82139 499.397C9.53045 484.759 16.8095 473.494 26.8978 463.954C36.7797 454.61 48.7348 449.306 61.5696 445.994C77.8061 441.802 94.2849 440.312 110.961 441.991C113.501 442.242 116.05 442.96 118.456 443.849C124.936 446.245 127.601 451.487 126.309 458.497C125.008 465.533 121.839 471.735 118.141 477.623C111.957 487.469 105.396 497.046 99.1765 506.865C90.5332 520.507 84.385 535.451 78.4792 550.503C75.1763 558.913 71.5503 567.126 66.2638 574.521C52.1904 594.186 14.8798 597.328 1.2731 564.846C-0.369394 560.924 -1.19513 556.633 -2.56836 551.957V551.966ZM83.2362 457.132L83.1823 457.366C81.3424 457.518 79.4934 457.554 77.6714 457.823C64.729 459.771 54.3355 466.395 46.0153 476.627C41.5725 482.093 37.8208 487.999 36.2591 495.098C35.559 498.275 35.3615 501.48 37.0579 504.442C39.4543 508.624 43.4933 509.27 47.6489 509.27C57.9616 509.27 66.4164 504.702 73.839 497.665C79.7627 492.047 84.3761 485.333 88.7471 478.467C91.1974 474.625 93.3156 470.47 94.985 466.206C96.4659 462.401 94.8503 459.574 91.0448 458.47C88.5227 457.743 85.848 457.554 83.2452 457.132H83.2362Z" stroke="#6D052A" stroke-width="1.85535" stroke-miterlimit="10"/>
<path d="M128.45 123.957C126.547 126.91 125.04 129.836 123.011 132.287C114.206 142.931 100.591 143.452 90.8344 133.651C83.1156 125.887 79.1665 116.122 77.3893 105.396C74.3377 87.0508 75.6212 69.0013 82.5681 51.7237C89.3266 34.9128 101.452 24.1873 118.649 19.897C131.017 16.8095 139.598 21.8178 144.301 34.6436C147.307 42.856 148.42 51.4544 149.022 60.1516C150.332 79.1794 149.282 98.1892 148.411 117.19C147.774 130.94 146.742 144.682 145.396 158.369C144.211 170.432 142.021 182.351 137.067 193.49C134.509 199.234 131.224 204.502 125.901 207.913C117.94 213.02 109.62 212.338 101.56 208.371C89.5151 202.429 82.4963 191.874 78.2151 179.219C76.9316 175.44 76.3751 171.392 75.5494 167.452C75.3968 166.743 75.5314 165.98 75.5314 165.074C76.1777 165.119 76.6713 165.11 77.147 165.199C83.3849 166.375 89.6048 167.632 95.8606 168.718C97.3236 168.969 97.8083 169.579 97.9699 171.033C98.4635 175.539 99.5226 179.883 102.045 183.689C103.929 186.525 106.487 188.302 109.799 188.894C113.811 189.612 116.827 188.104 119.089 184.649C122.446 179.524 123.774 173.645 124.833 167.73C127.373 153.612 127.966 139.296 128.576 124.99C128.585 124.702 128.504 124.415 128.441 123.949L128.45 123.957ZM129.572 75.9482C129.393 71.8375 129.5 67.6909 128.962 63.634C128.351 58.9758 127.58 54.2637 126.135 49.8299C124.097 43.5561 119.6 41.6892 113.632 44.0677C112.007 44.7139 110.437 45.6653 109.072 46.7872C104.127 50.8441 102 56.6063 100.555 62.6737C97.9878 73.4441 97.8262 84.3851 98.6251 95.3709C99.002 100.487 99.8188 105.531 102.116 110.153C104.746 115.44 109.099 117.63 114.17 115.853C116.468 115.045 118.712 113.618 120.534 111.948C123.989 108.789 125.802 104.49 127.041 99.9484C129.186 92.0949 129.617 84.053 129.572 75.9393V75.9482Z" stroke="#6D052A" stroke-width="1.85535" stroke-miterlimit="10"/>
<path d="M22.2894 326.469C24.6141 329.107 26.9028 331.674 29.1646 334.268C31.6328 337.104 34.0292 340.003 36.5603 342.777C37.5475 343.854 37.4758 344.554 36.5872 345.64C34.7832 347.848 32.9342 350.056 31.4533 352.497C28.5363 357.308 28.7427 361.84 31.7495 365.673C34.092 368.653 37.2603 369.604 40.8236 369.479C48.3359 369.209 54.7892 365.888 60.9015 361.778C71.0706 354.938 79.1036 345.864 85.9159 335.579C86.0774 335.336 86.1582 335.031 86.3646 334.555C85.9697 334.609 85.6825 334.573 85.476 334.69C74.5799 340.82 64.2852 336.404 57.8139 325.867C52.9313 317.924 51.1452 308.967 50.3554 299.794C48.9463 283.378 50.2836 267.195 55.0496 251.407C56.7369 245.825 59.0705 240.556 63.0556 236.293C69.3563 229.561 77.2546 228.359 85.7453 229.75C93.3206 230.997 100.456 233.69 107.08 237.675C117.626 244.012 122.894 253.93 124.68 266.1C127.005 281.96 124.492 297.272 119.313 312.162C112.178 332.679 101.524 350.98 86.0056 365.96C75.9981 375.627 64.6173 382.986 51.1902 386.451C41.1736 389.036 31.2648 389.027 21.9035 383.794C9.02381 376.596 4.06043 363.438 8.74558 349.006C11.3664 340.937 15.8989 333.99 21.0598 327.465C21.3201 327.133 21.724 326.917 22.2625 326.478L22.2894 326.469ZM107.125 275.767C106.784 273.209 106.568 270.004 105.877 266.908C104.818 262.124 102.305 258.256 98.1134 255.725C90.5112 251.147 83.9413 253.05 80.1716 261.262C74.9031 272.742 72.3002 284.993 71.1604 297.577C70.7026 302.639 71.1783 307.647 73.7542 312.18C78.3675 320.293 87.2083 321.694 93.7334 315.186C95.6631 313.257 97.4313 310.995 98.7327 308.572C104.091 298.591 106.308 287.704 107.116 275.758L107.125 275.767Z" stroke="#6D052A" stroke-width="1.85535" stroke-miterlimit="10"/>
<path d="M209.381 257.646C208.869 278.631 205.261 299.041 199.472 319.074C195.002 334.538 189.231 349.428 180.821 363.116C170.858 379.325 158.167 392.367 140.566 399.538C130.424 403.676 119.923 405.74 108.964 404.51C108.085 404.411 107.205 404.259 106.352 404.044C98.3823 402.078 94.9806 396.576 97.5475 388.516C99.3336 382.915 101.901 377.53 104.557 372.28C111.459 358.637 118.909 345.282 125.551 331.514C133.09 315.869 138.269 299.211 143.699 282.679C148.465 268.183 153.087 253.607 160.456 240.216C164.872 232.183 170.221 224.904 178.137 220.21C181.045 218.487 184.223 217.086 187.445 216.144C193.539 214.376 198.7 216.611 202.209 222.041C206.096 228.054 207.505 234.912 208.268 241.921C208.833 247.136 209.031 252.405 209.381 257.646ZM190.972 260.213C190.856 258.274 190.829 256.291 190.595 254.325C190.362 252.36 190.102 250.376 189.545 248.491C187.831 242.702 183.927 241.293 178.954 244.533C178.461 244.856 177.985 245.224 177.527 245.61C172.986 249.407 170.499 254.693 168.686 260.132C164.683 272.15 161.093 284.312 157.494 296.474C153.006 311.642 148.115 326.649 141.679 341.063C137.075 351.376 132.103 361.5 127.498 371.813C126.188 374.748 125.326 377.979 124.77 381.165C124.24 384.226 125.748 385.859 128.764 386.29C129.778 386.434 130.828 386.434 131.851 386.335C137.47 385.806 142.317 383.337 146.733 379.846C154.487 373.716 160.124 365.719 165.006 357.138C175.131 339.358 181.297 320.025 185.784 300.046C188.728 286.951 190.793 273.739 190.981 260.213H190.972Z" stroke="#6D052A" stroke-width="1.85535" stroke-miterlimit="10"/>
<path d="M-16.2584 448.112C-21.8052 445.653 -27.1725 443.266 -32.9795 440.69C-28.8598 435.206 -25.18 430.296 -21.518 425.414C-19.0677 426.428 -16.9226 427.442 -14.6967 428.205C-7.89338 430.521 -0.955411 430.691 6.09026 429.605C7.46349 429.39 9.02519 429.578 10.3446 430.036C15.0836 431.687 19.7597 433.545 24.768 435.439C-15.1634 476.196 -29.5689 525.525 -21.4372 582.698C-22.5143 582.501 -23.2951 582.465 -24.0042 582.204C-30.619 579.817 -37.2159 577.385 -43.8308 574.988C-45.3207 574.45 -45.9759 573.525 -46.1374 571.82C-48.1389 550.575 -47.2953 529.492 -42.5742 508.687C-37.7275 487.326 -29.1919 467.607 -17.1201 449.54C-16.788 449.046 -16.5097 448.525 -16.2584 448.094V448.112Z" stroke="#6D052A" stroke-width="1.85535" stroke-miterlimit="10"/>
<path d="M50.5951 188.589C45.1112 185.924 39.9145 183.411 34.7267 180.88C31.7917 179.452 28.9196 177.882 25.9308 176.598C24.3871 175.934 24.046 175.037 24.2165 173.457C25.8142 158.621 27.5195 143.793 28.8927 128.939C30.8314 107.847 32.5187 86.7369 34.2959 65.6358C34.3766 64.6664 34.3048 63.6881 34.3048 62.4495C32.7162 62.3598 31.1904 62.3867 29.6915 62.1803C25.3205 61.5699 20.9495 60.9147 16.5964 60.1518C16.013 60.0531 15.0975 59.1735 15.1155 58.6978C15.4027 53.6985 15.8515 48.6992 16.2643 43.5653C18.5172 43.682 20.6264 43.8346 22.7446 43.8795C29.8172 44.0321 36.3333 42.3626 41.9878 37.7134C42.6968 37.13 43.8636 36.9505 44.824 36.9415C48.809 36.9056 52.7941 37.112 56.7702 37.0043C58.6461 36.9505 59.2115 37.5518 59.1397 39.4636C58.314 60.9327 57.8652 82.4287 56.6805 103.88C55.4149 126.92 53.4852 149.915 51.8517 172.936C51.5376 177.343 51.2683 181.75 50.9542 186.157C50.9003 186.875 50.7477 187.584 50.5951 188.607V188.589Z" stroke="#6D052A" stroke-width="1.85535" stroke-miterlimit="10"/>
<path d="M122.673 753.032C123.122 750.169 123.508 747.719 123.885 745.26C126.82 726.124 126.119 707.016 122.027 688.212C117.934 669.427 112.89 650.857 108.258 632.197C107.603 629.558 106.903 626.928 106.203 624.245C100.719 626.767 95.4417 629.19 89.8949 631.73C89.5 630.68 89.1499 629.962 88.9614 629.199C87.8933 624.765 86.8971 620.305 85.7841 615.88C85.461 614.578 85.7841 613.923 86.9599 613.42C95.2173 609.866 102.254 604.616 107.873 597.372C108.267 596.87 108.833 596.34 109.407 596.188C114.685 594.806 119.989 593.513 125.644 592.095C125.85 593.881 126.057 595.416 126.209 596.96C127.547 610.1 130.437 622.916 133.488 635.724C137.482 652.508 141.683 669.256 145.084 686.175C148.719 704.278 149.249 722.633 146.781 741.014C146.529 742.872 145.802 743.931 144.007 744.613C137.707 747.001 131.469 749.595 125.213 752.108C124.486 752.395 123.75 752.646 122.664 753.05L122.673 753.032Z" stroke="#6D052A" stroke-width="1.85535" stroke-miterlimit="10"/>
</g>
</svg>
