<svg width="179" height="201" viewBox="0 0 179 201" fill="none" xmlns="http://www.w3.org/2000/svg">
<rect width="179" height="201" fill="#FF1521"/>
<mask id="mask0_1475_92640" style="mask-type:alpha" maskUnits="userSpaceOnUse" x="0" y="0" width="179" height="201">
<rect width="179" height="201" fill="#FF1521"/>
</mask>
<g mask="url(#mask0_1475_92640)">
<path d="M178.969 206.485L178.798 206.772L158.964 206.772C158.901 206.664 158.838 206.565 158.784 206.458L149.249 190.015C149.186 189.899 149.114 189.791 149.051 189.674C149.15 189.513 149.24 189.343 149.338 189.181L158.595 173.223C158.721 173.007 158.847 172.792 158.973 172.577L178.807 172.577L178.978 172.864L178.978 171.994L178.807 172.281L158.973 172.281C158.847 172.066 158.721 171.851 158.604 171.636L149.321 155.632C149.231 155.48 149.15 155.336 149.06 155.184C152.367 149.482 155.674 143.789 158.982 138.087L178.816 138.087L178.987 138.374L178.987 103.014L178.816 103.301L158.982 103.301C158.901 103.157 158.82 103.014 158.739 102.879L149.204 86.4455C149.159 86.3648 149.114 86.2841 149.069 86.2034C152.376 80.5013 155.683 74.8082 158.991 69.1062L178.825 69.1062L178.996 69.3931L178.996 68.5234L178.825 68.8103L158.991 68.8103C158.901 68.6489 158.802 68.4876 158.712 68.3262L149.177 51.8834C149.141 51.8207 149.105 51.7669 149.069 51.7041C152.376 46.0021 155.683 40.309 158.991 34.6069L178.825 34.6069L178.996 34.8938L178.996 3.14851e-05L158.739 2.79433e-05C155.432 5.70209 152.124 11.3952 148.817 17.0973L128.983 17.0973C128.983 17.0973 128.965 17.0704 128.956 17.0524L119.043 2.10027e-05L98.6963 1.74451e-05C95.3891 5.70208 92.0819 11.3952 88.7746 17.0972L68.9401 17.0972C68.9401 17.0972 68.9222 17.0703 68.9132 17.0614L59.2431 0.367596C59.1712 0.242079 59.0993 0.125528 59.0274 1.05092e-05L38.6807 6.95165e-06C35.3734 5.70207 32.0662 11.3952 28.759 17.0972L8.92448 17.0972L-0.988254 1.57135e-08L-1.07812 0L-1.07813 34.051L-1.07813 34.9207L1.24952 38.9282C2.87618 41.7345 4.51183 44.5496 6.13849 47.3558L8.67284 51.731L4.97915 58.0965C4.1793 59.4772 3.37945 60.8579 2.5796 62.2386L-1.07814 68.5413L-1.07814 69.411L2.5796 75.7137C3.37945 77.0944 4.1793 78.4751 4.97915 79.8558L8.67283 86.2213L4.97915 92.5868C4.18828 93.9586 3.38843 95.3213 2.59757 96.693L-1.07814 103.032L-1.07814 103.901L-1.07815 137.522L-1.07815 138.392L1.23153 142.381C2.86717 145.196 4.50282 148.021 6.13847 150.836L8.67282 155.202L-1.07816 172.003L-1.07816 172.873L1.24051 176.881C2.86717 179.687 4.49383 182.493 6.12049 185.299L8.66383 189.683L-1.07816 206.485L-1.07816 206.924L-0.997278 206.924L8.92445 189.827L28.7589 189.827C32.0662 195.529 35.3644 201.231 38.6806 206.924L59.0184 206.924C59.1442 206.709 59.27 206.485 59.3958 206.27L68.9311 189.827L88.7656 189.827C92.0728 195.529 95.3711 201.231 98.6873 206.924L119.034 206.924L128.956 189.827L148.79 189.827C152.098 195.529 155.396 201.231 158.712 206.924L178.969 206.924L178.969 206.485ZM98.6963 103.462C95.3891 109.164 92.0818 114.857 88.7746 120.559L68.9401 120.559C68.9401 120.559 68.9222 120.532 68.9132 120.514L59.1173 103.623C59.0903 103.57 59.0544 103.516 59.0274 103.462C61.5348 99.1406 64.0422 94.8103 66.5496 90.4889L68.9401 86.3648L88.7746 86.3648C92.0818 92.0668 95.3801 97.7689 98.6963 103.462ZM66.5496 124.979L68.9401 120.855L88.7746 120.855C92.0818 126.557 95.3801 132.259 98.6963 137.952C95.3891 143.654 92.0818 149.347 88.7746 155.05L68.9401 155.05C68.9401 155.05 68.9222 155.023 68.9132 155.005L59.1442 138.167C59.0993 138.096 59.0633 138.024 59.0184 137.952C61.5258 133.631 64.0332 129.301 66.5406 124.979L66.5496 124.979ZM98.0672 139.611L98.948 138.096L118.782 138.096C122.09 143.798 125.388 149.5 128.704 155.193C125.397 160.895 122.09 166.588 118.782 172.29L98.948 172.29C98.948 172.29 98.93 172.263 98.921 172.245L89.1251 155.363C89.0891 155.31 89.0622 155.247 89.0262 155.193C92.0369 150.002 95.0566 144.802 98.0672 139.611ZM148.79 155.05L128.956 155.05C128.956 155.05 128.938 155.014 128.929 155.005L119.169 138.176C119.124 138.105 119.079 138.024 119.043 137.952C121.586 133.568 124.13 129.175 126.682 124.791L128.965 120.855L148.799 120.855C152.107 126.557 155.405 132.259 158.721 137.952C155.414 143.654 152.106 149.348 148.799 155.05L148.79 155.05ZM148.79 86.3648C152.098 92.0669 155.396 97.7689 158.712 103.462C155.405 109.164 152.098 114.857 148.79 120.559L128.956 120.559C128.956 120.559 128.938 120.532 128.929 120.514L119.133 103.632C119.097 103.579 119.07 103.516 119.034 103.462C121.577 99.0779 124.121 94.6848 126.673 90.3006L128.956 86.3648L148.79 86.3648ZM118.782 103.319L98.948 103.319C98.948 103.319 98.93 103.292 98.921 103.274C98.921 103.274 89.0712 86.302 89.0262 86.2213C91.273 82.3572 98.948 69.1241 98.948 69.1241L118.782 69.1241C122.081 74.8262 125.388 80.5282 128.704 86.2213C125.397 91.9234 122.09 97.6165 118.782 103.319ZM67.8707 19.24L68.9401 17.3931L88.7746 17.3931C92.0729 23.0952 95.3801 28.7972 98.6963 34.4903C95.3891 40.1924 92.0819 45.8855 88.7746 51.5876L68.9401 51.5876C68.9401 51.5876 68.9222 51.5607 68.9132 51.5427L59.1173 34.6517C59.0903 34.5979 59.0544 34.5441 59.0274 34.4903C61.9752 29.4069 64.9229 24.3234 67.8707 19.24ZM98.948 34.6338L118.782 34.6338C122.09 40.3359 125.388 46.0379 128.704 51.731C125.397 57.4331 122.09 63.1262 118.782 68.8282L98.948 68.8282C98.948 68.8282 98.912 68.7565 98.8851 68.7207L89.1251 51.9014C89.0892 51.8476 89.0532 51.7848 89.0262 51.731C92.3335 46.0289 95.6407 40.3359 98.948 34.6338ZM148.79 51.5876L128.956 51.5876C128.956 51.5876 128.938 51.5607 128.929 51.5427L119.133 34.6607C119.097 34.6069 119.07 34.5441 119.034 34.4903C122.018 29.3441 125.002 24.1979 127.985 19.0517L128.947 17.3931L148.781 17.3931C152.08 23.0952 155.387 28.7972 158.703 34.4903C155.396 40.1924 152.089 45.8855 148.781 51.5876L148.79 51.5876ZM8.92448 51.5876L-0.98826 34.4903L8.92448 17.3931L28.759 17.3931C32.0033 22.9876 35.2476 28.591 38.5009 34.1855L38.6807 34.4903L38.5009 34.7952C35.2476 40.3896 32.0033 45.9841 28.7589 51.5876L8.92448 51.5876ZM38.9323 34.6338L58.7668 34.6338C62.0291 40.2552 65.2824 45.8765 68.5447 51.4979L68.6795 51.731L68.32 52.3496C65.1296 57.8455 61.9482 63.3413 58.7578 68.8372L38.9233 68.8372C38.9233 68.8372 38.8784 68.7655 38.8604 68.7296L29.1005 51.9013C29.0735 51.8476 29.0375 51.7938 29.0106 51.74C32.3178 46.0379 35.6251 40.3448 38.9323 34.6427L38.9323 34.6338ZM35.688 74.7186L38.9323 69.1241L58.7668 69.1241C62.0381 74.7724 65.3094 80.4117 68.5896 86.0599L68.6795 86.2213L68.5447 86.4544C65.2824 92.0758 62.0201 97.6972 58.7668 103.319L38.9323 103.319C38.9323 103.319 38.9143 103.283 38.9053 103.274L29.1454 86.4455C29.1004 86.3737 29.0645 86.302 29.0196 86.2303C31.2394 82.393 33.4682 78.5648 35.688 74.7275L35.688 74.7186ZM-0.988272 103.462L8.93346 86.3648L28.7679 86.3648C32.0392 92.0041 35.3105 97.6434 38.5818 103.283L38.6807 103.462L38.5009 103.767C35.2476 109.361 32.0033 114.965 28.7589 120.559L8.92447 120.559L-0.988272 103.462ZM8.93345 155.05L-0.988278 137.952L8.93345 120.855L28.7679 120.855C32.0123 126.45 35.2566 132.053 38.5099 137.647L38.6896 137.952L38.5369 138.212C35.2746 143.825 32.0212 149.437 28.7679 155.05L8.92446 155.05L8.93345 155.05ZM29.3071 154.709L38.9413 138.096L58.7757 138.096C62.056 143.753 65.3363 149.41 68.6256 155.067L68.6975 155.193L68.5267 155.489C65.2734 161.092 62.0291 166.687 58.7757 172.29L38.9413 172.29L29.2442 155.579C29.1723 155.453 29.0915 155.319 29.0196 155.193C29.1094 155.032 29.2083 154.87 29.2982 154.709L29.3071 154.709ZM67.7269 191.36C64.7432 196.497 61.7684 201.643 58.7847 206.781L38.9503 206.781L29.2173 189.997C29.1544 189.89 29.0914 189.782 29.0375 189.683C29.1184 189.54 29.2083 189.396 29.2892 189.253L38.9593 172.586L58.7937 172.586C62.047 178.199 65.3004 183.811 68.5537 189.414L68.7065 189.683L67.7359 191.36L67.7269 191.36ZM118.8 206.781L98.9659 206.781L89.152 189.863C89.1161 189.8 89.0801 189.737 89.0442 189.683C91.6594 185.165 94.2837 180.655 96.8989 176.136L98.9569 172.586L118.791 172.586C122.099 178.288 125.397 183.99 128.713 189.683C125.406 195.385 122.099 201.078 118.791 206.781L118.8 206.781Z" fill="#FF009C"/>
</g>
</svg>
