<svg width="329" height="329" viewBox="0 0 329 329" fill="none" xmlns="http://www.w3.org/2000/svg">
<rect width="329" height="329" fill="#FF9495"/>
<mask id="mask0_1886_12005" style="mask-type:alpha" maskUnits="userSpaceOnUse" x="0" y="0" width="329" height="329">
<rect width="329" height="329" fill="#FF1521"/>
</mask>
<g mask="url(#mask0_1886_12005)">
<path d="M328.948 379.517L328.634 380.044L292.178 380.044C292.063 379.846 291.947 379.665 291.848 379.467L274.322 349.246C274.207 349.031 274.075 348.834 273.959 348.619C274.141 348.323 274.306 348.01 274.488 347.713L291.501 318.381C291.732 317.986 291.964 317.59 292.195 317.195L328.651 317.195L328.964 317.722L328.964 316.124L328.651 316.651L292.195 316.651C291.964 316.256 291.732 315.86 291.518 315.465L274.455 286.05C274.289 285.77 274.141 285.507 273.975 285.227C280.054 274.746 286.133 264.282 292.212 253.802L328.667 253.802L328.981 254.329L328.981 189.338L328.667 189.865L292.212 189.865C292.063 189.602 291.914 189.338 291.766 189.091L274.24 158.886C274.157 158.738 274.075 158.589 273.992 158.441C280.071 147.961 286.149 137.497 292.228 127.016L328.684 127.016L328.997 127.544L328.997 125.945L328.684 126.473L292.228 126.473C292.063 126.176 291.881 125.879 291.716 125.583L274.19 95.3612C274.124 95.2458 274.058 95.147 273.992 95.0316C280.071 84.5513 286.149 74.0874 292.228 63.6071L328.684 63.6071L328.997 64.1344L328.997 5.78693e-05L291.766 5.13595e-05C285.687 10.4804 279.608 20.9442 273.53 31.4246L237.074 31.4246C237.074 31.4246 237.041 31.3751 237.024 31.3422L218.805 3.86027e-05L181.408 3.2064e-05C175.329 10.4804 169.25 20.9442 163.172 31.4245L126.716 31.4245C126.716 31.4245 126.683 31.3751 126.667 31.3586L108.893 0.675638C108.761 0.444939 108.629 0.230718 108.497 1.93158e-05L71.0997 1.27771e-05C65.021 10.4803 58.9423 20.9442 52.8637 31.4245L16.4081 31.4245L-1.81138 2.88812e-08L-1.97656 0L-1.97657 62.5854L-1.97657 64.1838L2.30162 71.5497C5.29141 76.7075 8.29771 81.8817 11.2875 87.0395L15.9456 95.081L9.15665 106.781C7.68653 109.318 6.21642 111.856 4.7463 114.394L-1.97658 125.978L-1.97658 127.577L4.7463 139.161C6.21641 141.699 7.68653 144.236 9.15664 146.774L15.9456 158.474L9.15664 170.174C7.70304 172.695 6.23292 175.2 4.77933 177.721L-1.9766 189.371L-1.9766 190.969L-1.97661 252.764L-1.97661 254.362L2.26855 261.695C5.27486 266.869 8.28116 272.06 11.2875 277.234L15.9456 285.259L-1.97662 316.14L-1.97662 317.739L2.28506 325.105C5.27484 330.262 8.26463 335.42 11.2544 340.578L15.929 348.636L-1.97663 379.517L-1.97663 380.324L-1.82797 380.324L16.4081 348.899L52.8636 348.899C58.9423 359.38 65.0044 369.86 71.0996 380.324L108.48 380.324C108.711 379.929 108.943 379.517 109.174 379.121L126.7 348.899L163.155 348.9C169.234 359.38 175.296 369.86 181.391 380.324L218.788 380.324L237.024 348.9L273.48 348.9C279.559 359.38 285.621 369.86 291.716 380.324L328.948 380.324L328.948 379.517ZM181.408 190.162C175.329 200.642 169.25 211.106 163.172 221.587L126.716 221.587C126.716 221.587 126.683 221.537 126.667 221.504L108.662 190.459C108.612 190.36 108.546 190.261 108.497 190.162C113.105 182.219 117.714 174.26 122.322 166.318L126.716 158.737L163.172 158.737C169.25 169.218 175.313 179.698 181.408 190.162ZM122.322 229.71L126.716 222.13L163.172 222.13C169.25 232.611 175.313 243.091 181.408 253.555C175.329 264.035 169.25 274.499 163.172 284.979L126.716 284.979C126.716 284.979 126.683 284.93 126.667 284.897L108.711 253.95C108.629 253.818 108.563 253.687 108.48 253.555C113.089 245.612 117.697 237.653 122.306 229.71L122.322 229.71ZM180.252 256.603L181.87 253.818L218.326 253.819C224.405 264.299 230.467 274.779 236.562 285.243C230.483 295.723 224.405 306.187 218.326 316.668L181.87 316.668C181.87 316.668 181.837 316.618 181.821 316.585L163.816 285.556C163.75 285.457 163.7 285.342 163.634 285.243C169.168 275.702 174.718 266.144 180.252 256.603ZM273.48 284.979L237.024 284.979C237.024 284.979 236.991 284.913 236.975 284.897L219.036 253.967C218.954 253.835 218.871 253.687 218.805 253.555C223.48 245.497 228.154 237.422 232.845 229.364L237.041 222.13L273.496 222.13C279.575 232.611 285.637 243.091 291.732 253.555C285.654 264.035 279.575 274.499 273.496 284.979L273.48 284.979ZM273.48 158.738C279.559 169.218 285.621 179.698 291.716 190.162C285.637 200.642 279.559 211.106 273.48 221.587L237.024 221.587C237.024 221.587 236.991 221.537 236.975 221.504L218.97 190.475C218.904 190.376 218.854 190.261 218.788 190.162C223.463 182.104 228.138 174.03 232.829 165.972L237.024 158.737L273.48 158.738ZM218.326 189.898L181.87 189.898C181.87 189.898 181.837 189.849 181.821 189.816C181.821 189.816 163.717 158.622 163.634 158.474C167.764 151.372 181.87 127.049 181.87 127.049L218.326 127.049C224.388 137.53 230.467 148.01 236.562 158.474C230.483 168.954 224.405 179.418 218.326 189.898ZM124.751 35.3629L126.716 31.9683L163.172 31.9683C169.234 42.4487 175.313 52.929 181.408 63.3929C175.329 73.8732 169.25 84.337 163.172 94.8174L126.716 94.8174C126.716 94.8174 126.683 94.7679 126.667 94.735L108.662 63.6895C108.612 63.5906 108.546 63.4917 108.497 63.3928C113.915 54.0495 119.333 44.7062 124.751 35.3629ZM181.87 63.6565L218.326 63.6565C224.405 74.1368 230.467 84.6172 236.562 95.081C230.483 105.561 224.405 116.025 218.326 126.506L181.87 126.506C181.87 126.506 181.804 126.374 181.755 126.308L163.816 95.3941C163.75 95.2952 163.684 95.1799 163.634 95.081C169.713 84.6007 175.792 74.1368 181.87 63.6565ZM273.48 94.8174L237.024 94.8174C237.024 94.8174 236.991 94.7679 236.975 94.735L218.97 63.706C218.904 63.6071 218.854 63.4917 218.788 63.3929C224.272 53.9342 229.756 44.4755 235.24 35.0169L237.008 31.9683L273.463 31.9684C279.526 42.4487 285.604 52.929 291.7 63.3929C285.621 73.8732 279.542 84.3371 273.463 94.8174L273.48 94.8174ZM16.4081 94.8173L-1.81139 63.3928L16.4081 31.9683L52.8637 31.9683C58.8267 42.2509 64.7898 52.55 70.7693 62.8326L71.0997 63.3928L70.7693 63.9531C64.7898 74.2357 58.8267 84.5183 52.8637 94.8173L16.4081 94.8173ZM71.5622 63.6565L108.018 63.6565C114.014 73.9885 119.993 84.3205 125.989 94.6526L126.237 95.081L125.577 96.218C119.713 106.319 113.865 116.421 108.001 126.522L71.5457 126.522C71.5457 126.522 71.4631 126.39 71.43 126.324L53.4914 95.3941C53.4418 95.2952 53.3757 95.1964 53.3262 95.0975C59.4048 84.6172 65.4835 74.1533 71.5622 63.673L71.5622 63.6565ZM65.5991 137.332L71.5622 127.049L108.018 127.049C114.03 137.431 120.043 147.796 126.072 158.177L126.237 158.474L125.989 158.902C119.993 169.234 113.997 179.566 108.018 189.898L71.5622 189.898C71.5622 189.898 71.5291 189.832 71.5126 189.816L53.5739 158.886C53.4913 158.754 53.4253 158.622 53.3427 158.49C57.4227 151.438 61.5192 144.401 65.5991 137.348L65.5991 137.332ZM-1.81141 190.162L16.4246 158.737L52.8802 158.737C58.8928 169.102 64.9054 179.467 70.918 189.832L71.0997 190.162L70.7693 190.722C64.7897 201.005 58.8267 211.304 52.8636 221.587L16.4081 221.587L-1.81141 190.162ZM16.4246 284.979L-1.81143 253.555L16.4246 222.13L52.8802 222.13C58.8432 232.413 64.8062 242.712 70.7858 252.995L71.1162 253.555L70.8354 254.033C64.8393 264.348 58.8597 274.664 52.8801 284.979L16.4081 284.979L16.4246 284.979ZM53.8712 284.353L71.5787 253.818L108.034 253.818C114.063 264.216 120.092 274.614 126.138 285.012L126.27 285.243L125.956 285.787C119.977 296.086 114.014 306.368 108.034 316.668L71.5787 316.668L53.7556 285.952C53.6235 285.721 53.4748 285.474 53.3427 285.243C53.5078 284.946 53.6895 284.65 53.8547 284.353L53.8712 284.353ZM124.486 351.717C119.002 361.16 113.535 370.618 108.051 380.06L71.5952 380.06L53.706 349.213C53.5904 349.015 53.4748 348.817 53.3757 348.636C53.5243 348.372 53.6895 348.109 53.8382 347.845L71.6117 317.211L108.067 317.211C114.047 327.527 120.026 337.842 126.006 348.141L126.287 348.636L124.503 351.717L124.486 351.717ZM218.359 380.06L181.903 380.06L163.866 348.965C163.799 348.85 163.733 348.735 163.667 348.636C168.474 340.331 173.297 332.042 178.104 323.737L181.887 317.211L218.342 317.211C224.421 327.692 230.483 338.172 236.578 348.636C230.5 359.116 224.421 369.58 218.342 380.06L218.359 380.06Z" fill="#FF009C"/>
</g>
</svg>
