<svg width="392" height="896" viewBox="0 0 392 896" fill="none" xmlns="http://www.w3.org/2000/svg">
<rect width="391.957" height="895.526" fill="#FF1521"/>
<mask id="mask0_3706_8069" style="mask-type:alpha" maskUnits="userSpaceOnUse" x="0" y="0" width="392" height="896">
<rect width="391.957" height="895.526" fill="#FF1521"/>
</mask>
<g mask="url(#mask0_3706_8069)">
<path d="M584.751 893.566L584.01 894.815H497.881C497.608 894.346 497.335 893.917 497.101 893.449L455.695 821.911C455.422 821.404 455.11 820.936 454.837 820.429C455.266 819.727 455.656 818.986 456.086 818.283L496.281 748.851C496.828 747.915 497.374 746.979 497.92 746.043H584.049L584.79 747.291V743.508L584.049 744.756H497.92C497.374 743.82 496.828 742.883 496.32 741.947L456.008 672.32C455.617 671.657 455.266 671.033 454.876 670.37C469.237 645.562 483.598 620.792 497.959 595.984H584.088L584.829 597.232V443.39L584.088 444.638H497.959C497.608 444.014 497.257 443.39 496.906 442.805L455.5 371.306C455.305 370.954 455.11 370.603 454.915 370.252C469.276 345.444 483.637 320.675 497.998 295.867H584.127L584.868 297.115V293.331L584.127 294.579H497.998C497.608 293.877 497.179 293.175 496.789 292.473L455.383 220.935C455.227 220.662 455.071 220.428 454.915 220.155C469.276 195.346 483.637 170.577 497.998 145.769H584.127L584.868 147.017V-4.79712H496.906C482.545 20.0111 468.183 44.7804 453.822 69.5887H367.694C367.694 69.5887 367.616 69.4716 367.577 69.3936L324.532 -4.79712H236.18C221.819 20.0111 207.457 44.7804 193.096 69.5887H106.968C106.968 69.5887 106.89 69.4716 106.851 69.4326L64.86 -3.19784C64.5479 -3.74394 64.2357 -4.25103 63.9235 -4.79712H-24.4291C-38.7903 20.0111 -53.1515 44.7804 -67.5127 69.5887H-153.641L-196.685 -4.79712H-197.076V143.35V147.134L-186.968 164.57C-179.905 176.779 -172.802 189.027 -165.739 201.236L-154.734 220.272L-170.773 247.966C-174.246 253.973 -177.719 259.98 -181.193 265.987L-197.076 293.409V297.193L-181.193 324.615C-177.719 330.622 -174.246 336.629 -170.773 342.636L-154.734 370.33L-170.773 398.025C-174.207 403.993 -177.68 409.922 -181.114 415.89L-197.076 443.468V447.252V593.527V597.31L-187.046 614.668C-179.944 626.916 -172.841 639.204 -165.739 651.452L-154.734 670.448L-197.076 743.547V747.33L-187.007 764.766C-179.944 776.975 -172.88 789.184 -165.817 801.393L-154.773 820.468L-197.076 893.566V895.478H-196.724L-153.641 821.092H-67.5127C-53.1515 845.9 -38.8293 870.708 -24.4291 895.478H63.8844C64.4308 894.542 64.9771 893.566 65.5235 892.63L106.929 821.092H193.057C207.418 845.9 221.741 870.708 236.141 895.478H324.493L367.577 821.092H453.705C468.066 845.9 482.388 870.708 496.789 895.478H584.751V893.566ZM236.18 445.34C221.819 470.148 207.457 494.918 193.096 519.726H106.968C106.968 519.726 106.89 519.609 106.851 519.531L64.3137 446.042C64.1966 445.808 64.0405 445.574 63.9235 445.34C74.8114 426.539 85.6994 407.699 96.5874 388.898L106.968 370.954H193.096C207.457 395.763 221.78 420.571 236.18 445.34ZM96.5874 538.956L106.968 521.013H193.096C207.457 545.822 221.78 570.63 236.18 595.399C221.819 620.207 207.457 644.977 193.096 669.785H106.968C106.968 669.785 106.89 669.668 106.851 669.59L64.4308 596.335C64.2356 596.023 64.0795 595.711 63.8844 595.399C74.7724 576.598 85.6604 557.758 96.5483 538.956H96.5874ZM233.448 602.615L237.272 596.023H323.401C337.762 620.831 352.084 645.64 366.484 670.409C352.123 695.217 337.762 719.986 323.401 744.795H237.272C237.272 744.795 237.194 744.678 237.155 744.6L194.618 671.15C194.462 670.916 194.345 670.643 194.189 670.409C207.262 647.824 220.375 625.2 233.448 602.615ZM453.705 669.785H367.577C367.577 669.785 367.499 669.629 367.46 669.59L325.079 596.374C324.884 596.062 324.688 595.711 324.532 595.399C335.576 576.325 346.621 557.211 357.704 538.137L367.616 521.013H453.744C468.105 545.822 482.427 570.63 496.828 595.399C482.466 620.207 468.105 644.977 453.744 669.785H453.705ZM453.705 370.954C468.066 395.763 482.388 420.571 496.789 445.34C482.427 470.148 468.066 494.918 453.705 519.726H367.577C367.577 519.726 367.499 519.609 367.46 519.531L324.923 446.081C324.767 445.847 324.649 445.574 324.493 445.34C335.537 426.266 346.582 407.153 357.665 388.078L367.577 370.954H453.705ZM323.401 444.716H237.272C237.272 444.716 237.194 444.599 237.155 444.521C237.155 444.521 194.384 370.681 194.189 370.33C203.945 353.518 237.272 295.945 237.272 295.945H323.401C337.723 320.753 352.084 345.561 366.484 370.33C352.123 395.139 337.762 419.908 323.401 444.716ZM102.324 78.9113L106.968 70.8759H193.096C207.418 95.6842 221.78 120.492 236.18 145.262C221.819 170.07 207.457 194.839 193.096 219.647H106.968C106.968 219.647 106.89 219.53 106.851 219.452L64.3137 145.964C64.1966 145.73 64.0405 145.496 63.9235 145.262C76.7237 123.145 89.5238 101.028 102.324 78.9113ZM237.272 145.886H323.401C337.762 170.694 352.084 195.502 366.484 220.272C352.123 245.08 337.762 269.849 323.401 294.657H237.272C237.272 294.657 237.116 294.345 236.999 294.189L194.618 221.013C194.462 220.779 194.306 220.506 194.189 220.272C208.55 195.463 222.911 170.694 237.272 145.886ZM453.705 219.647H367.577C367.577 219.647 367.499 219.53 367.46 219.452L324.923 146.003C324.767 145.769 324.649 145.496 324.493 145.262C337.45 122.872 350.406 100.482 363.362 78.0921L367.538 70.8759H453.666C467.988 95.6842 482.349 120.492 496.75 145.262C482.388 170.07 468.027 194.839 453.666 219.647H453.705ZM-153.641 219.647L-196.685 145.262L-153.641 70.8759H-67.5127C-53.4247 95.2161 -39.3367 119.595 -25.2096 143.935L-24.4291 145.262L-25.2096 146.588C-39.3367 170.928 -53.4247 195.268 -67.5127 219.647H-153.641ZM-23.3364 145.886H62.7917C76.9578 170.343 91.0848 194.8 105.251 219.257L105.836 220.272L104.275 222.963C90.4214 246.874 76.6066 270.785 62.7527 294.696H-23.3754C-23.3754 294.696 -23.5706 294.384 -23.6486 294.228L-66.0298 221.013C-66.1468 220.779 -66.3029 220.545 -66.42 220.311C-52.0588 195.502 -37.6976 170.733 -23.3364 145.925V145.886ZM-37.4244 320.285L-23.3364 295.945H62.7917C76.9968 320.519 91.2019 345.054 105.446 369.628L105.836 370.33L105.251 371.345C91.0848 395.802 76.9188 420.259 62.7917 444.716H-23.3364C-23.3364 444.716 -23.4145 444.56 -23.4535 444.521L-65.8346 371.306C-66.0298 370.993 -66.1859 370.681 -66.381 370.369C-56.7418 353.674 -47.0636 337.019 -37.4244 320.324V320.285ZM-196.685 445.34L-153.602 370.954H-67.4737C-53.2686 395.49 -39.0635 420.025 -24.8584 444.56L-24.4291 445.34L-25.2096 446.666C-39.3367 471.007 -53.4247 495.386 -67.5127 519.726H-153.641L-196.685 445.34ZM-153.602 669.785L-196.685 595.399L-153.602 521.013H-67.4737C-53.3857 545.353 -39.2976 569.733 -25.1706 594.073L-24.3901 595.399L-25.0535 596.53C-39.2196 620.948 -53.3466 645.367 -67.4737 669.785H-153.641H-153.602ZM-65.1322 668.303L-23.2974 596.023H62.8307C77.0749 620.636 91.319 645.25 105.602 669.863L105.914 670.409L105.173 671.696C91.0458 696.075 76.9578 720.416 62.8307 744.795H-23.2974L-65.4053 672.086C-65.7176 671.54 -66.0688 670.955 -66.381 670.409C-65.9907 669.707 -65.5615 669.005 -65.1712 668.303H-65.1322ZM101.7 827.762C88.7433 850.113 75.826 872.503 62.8698 894.854H-23.2584L-65.5224 821.833C-65.7956 821.365 -66.0688 820.897 -66.3029 820.468C-65.9517 819.844 -65.5615 819.22 -65.2102 818.595L-23.2193 746.082H62.9088C77.0358 770.5 91.1629 794.918 105.29 819.298L105.953 820.468L101.739 827.762H101.7ZM323.479 894.854H237.351L194.735 821.248C194.579 820.975 194.423 820.702 194.267 820.468C205.623 800.808 217.018 781.188 228.375 761.529L237.311 746.082H323.44C337.801 770.89 352.123 795.698 366.523 820.468C352.162 845.276 337.801 870.045 323.44 894.854H323.479Z" fill="#FF009C"/>
</g>
</svg>
