<svg width="785" height="290" viewBox="0 0 785 290" fill="none" xmlns="http://www.w3.org/2000/svg"><path d="M264.042 143.714c.972-32.757 8.21-63.895 28.298-91.938 18.061-25.21 42.625-43.398 76.455-49.436 47.177-8.417 85.224 6.21 114.93 38.415 19.302 20.922 29.502 45.458 34.09 71.927 5.16 29.785 3.431 59.222-6.629 88.034-11.455 32.822-31.594 60.252-66.865 77.091-46.531 22.218-103.121 11.883-138.69-24.917-21.227-21.96-32.747-47.755-37.712-75.909-1.938-11.004-2.626-22.177-3.881-33.275l.004.008zm56.419-1.047c.432 25.91 2.594 50.396 10.195 74.278 4.863 15.277 11.566 29.814 23.909 41.775 20.957 20.305 53.676 20.566 75.154.715 9.646-8.916 15.908-19.597 20.599-31.019 7.908-19.242 11.543-39.224 13.235-59.57 2.734-32.846 1.139-65.374-8.939-97.268-4.826-15.269-11.869-29.67-24.44-41.464-21.273-19.962-54.066-19.929-75.265.081-9.279 8.761-15.42 19.19-20.013 30.325-11.12 26.944-13.956 55.02-14.43 82.151l-.005-.004zM198.549 3.17v201.303h46.335v15.922h-45.935c-1.925 22.296 3.547 43.422 8.735 64.954h-67.641c5.616-21.18 10.106-42.376 9.325-64.847H0c1.446-2.196 2.24-3.483 3.12-4.722C52.57 146.179 102.051 76.59 151.404 6.931c2.017-2.845 4.081-3.896 7.847-3.835 12.863.209 25.731.078 39.297.078V3.17zm-49.385 201.176V41.678l-.874-.281C109.727 95.532 71.16 149.666 32.198 204.35h116.966v-.004zm539.888 15.959H540.227c1.26-1.971 1.99-3.221 2.836-4.411C592.63 146.129 642.224 76.376 691.73 6.574c1.771-2.493 3.607-3.531 7.038-3.478 13.012.196 26.034.078 39.557.078v201.249H785v15.91h-46.461c-.878 22.423 3.659 43.635 9.419 65.06h-67.669c5.03-21.347 10.529-42.465 8.758-65.092l.005.004zm.056-178.419c-.307-.077-.614-.159-.916-.237-38.511 54.06-77.023 108.114-115.878 162.656h116.798V41.886h-.004z" fill="#EC9FFF"/></svg>