<svg width="144" height="759" viewBox="0 0 144 759" fill="none" xmlns="http://www.w3.org/2000/svg"><path fill="#FF9495" d="M0-3.125h144v762H0z"/><mask id="a" style="mask-type:alpha" maskUnits="userSpaceOnUse" x="0" y="-4" width="144" height="763"><path fill="#6D052A" stroke="#FF9495" stroke-width="1.367" d="M.683-2.441h142.633v760.633H.683z"/></mask><g mask="url(#a)" stroke="#6D052A" stroke-width="1.855" stroke-miterlimit="10"><path d="M-31.264 758.866c-4.82-1.642-9.801-2.89-14.414-5.008-18.113-8.311-29.018-23.121-34.816-42.328-.7-2.325-1.212-4.712-1.795-7.081-.063-.27 0-.566 0-1.069.763.225 1.4.359 1.993.584 6.973 2.719 13.956 5.394 20.876 8.248.898.368 1.822 1.517 2.092 2.495 1.669 6.077 3.491 12.153 8.284 16.38 2.692 2.379 5.906 4.336 9.182 5.736 4.91 2.1 9.01.538 11.856-4.093a25.663 25.663 0 002.881-6.633c3.06-11.291 1.822-22.627.108-34.358-1.095.844-1.85 1.526-2.693 2.065-3.339 2.118-7.018 2.306-10.716 1.624-10.78-1.992-19.908-7.521-28.093-14.737-15.42-13.58-25.436-30.849-31.558-50.648-3.069-9.927-4.945-20.114-4.371-30.579.189-3.519.835-7.154 2.029-10.457 2.71-7.53 8.131-10.402 15.823-8.939 6.05 1.149 11.426 4.003 16.704 7.09 18.605 10.905 33.388 25.903 44.831 44.545 12.117 19.728 19.773 41.143 23.319 64.174 1.552 10.115 2.495 20.257 1.346 30.498-.7 6.184-2.181 12.135-4.964 17.709-3.886 7.772-9.881 12.745-18.148 14.764h-9.747l-.009.018zM-77.2 617.836l.18.036c.053.916.062 1.831.161 2.738 1.266 11.21 4.21 21.917 9.137 32.006 3.33 6.821 7.63 12.879 13.75 17.313 4.757 3.447 9.837 6.229 15.887 6.112 3.195-.062 5.61-1.777 5.977-4.99.395-3.41.512-7.045-.18-10.366a115.458 115.458 0 00-8.975-26.46c-4.101-8.562-9.172-16.443-16.945-21.882-3.357-2.351-7.19-4.182-11.049-5.484-3.41-1.149-6.076.826-7.018 4.452-.548 2.109-.638 4.344-.934 6.525h.01zm106.6 141.03c-1.463-4.694-3.33-9.307-4.29-14.109-2.405-12.018-4.371-24.126-6.579-36.189-2.764-15.132-5.663-30.238-8.383-45.379-1.553-8.626-2.854-17.323-2.064-26.146.26-2.943.79-5.914 1.633-8.733 2.343-7.826 7.773-12.502 15.25-14.486 13.543-3.608 26.782-3.276 39.15 4.407 7.952 4.946 13.553 12.09 17.448 20.724.09.189.063.431.117.871-.656.251-1.31.565-1.993.754-5.134 1.409-10.295 2.71-15.401 4.236-1.876.557-2.684-.161-3.707-1.669-1.966-2.908-3.968-5.915-6.472-8.294-4.11-3.886-9.244-4.469-14.558-3.249-4.739 1.086-7.315 4.533-7.602 9.236-.314 5.134-.26 10.385.431 15.474 1.005 7.386 2.728 14.665 4.156 21.989.098.494.332.961.395 1.122 2.046-2.567 3.805-5.582 6.273-7.71 9.056-7.826 26.038-8.499 36.8-1.786 9.154 5.709 14.871 14.28 18.291 24.467 5.673 16.901 5.592 33.783-2.037 50.065-2.415 5.143-6.13 9.63-9.254 14.414H29.427l-.027-.009zm50.208-36.88c-.188-8.966-1.301-16.81-4.586-24.233-4.272-9.649-12.592-13.849-22.062-10.986-3.518 1.059-6.13 3.249-7.745 6.66-2.172 4.586-2.666 9.541-2.379 14.486.467 8.132 1.212 16.254 2.083 24.35.592 5.52 1.418 11.058 4.11 16.03 2.352 4.344 5.951 6.391 10.789 6.068 5.017-.332 9.002-2.711 12.134-6.651 6.157-7.755 7.477-17.017 7.656-25.724zm69.488-227.067c-5.628-3.546-7.692-8.348-6.04-14.451.745-2.755 1.884-5.493 3.347-7.916 7.558-12.593 17.79-22.474 29.664-30.606 9.891-6.777 20.589-11.507 32.419-13.275 6.776-1.014 13.58-1.176 20.186.835 13.499 4.12 19.189 15.743 14.235 29.816-5.816 16.515-16.946 27.752-33.093 33.532-1.516.539-3.051 1.023-4.891 1.634.709.583 1.176 1.005 1.669 1.364 6.579 4.766 8.509 11.399 7.055 19.261-1.58 8.536-5.43 16.066-10.053 23.201-8.472 13.078-20.67 20.626-34.995 24.826-11.039 3.24-22.33 5.035-33.828 5.161-6.677.072-13.292-.655-19.404-3.761-10.385-5.286-15.025-15.15-12.719-26.881 2.487-12.655 9.685-21.998 19.549-29.421 7.342-5.529 15.5-9.379 24.099-12.296.763-.261 1.516-.557 2.8-1.032v.009zm23.147 7.099c-9.971.422-18.938 3.473-26.594 10.079-7.539 6.49-12.772 14.558-14.45 24.701-1.248 7.53 2.118 12.664 9.415 13.813 9.963 1.561 19.217-.62 27.303-7.118 5.484-4.398 9.182-10.259 12.404-16.479 2.325-4.505 4.569-9.056 5.224-14.235.619-4.909-1.31-8.203-5.933-9.478-2.396-.655-4.909-.87-7.369-1.283zm10.277-15.77c9.828-.35 18.202-3.85 24.88-11.336 4.936-5.537 9.173-11.596 11.013-19.018 1.472-5.951-.97-9.416-6.893-10.17-5.592-.718-10.852.494-15.806 3.178-7.575 4.11-13.328 10.303-18.014 17.529-2.27 3.5-4.308 7.297-5.708 11.246-1.364 3.841.467 6.588 4.245 7.53 2.056.512 4.192.709 6.283 1.05v-.009zM3.218 267.662c-18.265.332-31.79-9.864-44.85-20.796-8.455-7.073-14.701-16.012-17.897-26.944-2.961-10.142-2.656-20.213 1.374-29.978 4.649-11.264 14.746-17.071 27.455-16.111 9.074.691 17.386 3.922 25.41 8.087 11.506 5.969 21.675 13.723 29.134 24.691 13.49 19.845 16.11 41.538 9.19 64.488-3.653 12.126-9.316 23.229-17.96 32.464C8.065 311.058-.2 316.488-9.903 319.45c-9.864 3.015-19.44 2.208-28.55-2.774-10.52-5.753-20.177-12.709-27.151-22.932-5.906-8.652-7.62-18.337-5.996-28.73.198-1.257.736-1.84 1.93-1.4 7.908 2.917 15.815 5.843 23.686 8.867.467.18.646 1.239.898 1.921.063.171-.099.431-.144.655-2.163 10.241 1.652 17.269 11.839 22.223 3.787 1.849 7.808 1.338 11.65-.197 7.297-2.899 12.718-8.275 17.098-14.711 2.692-3.967 4.775-8.383 7.09-12.628.377-.691.557-1.499.772-2.1v.018zm8.724-36.988c.234-19.369-11.488-32.338-27.007-36.054-5.995-1.436-10.968 1.077-13.418 6.884-1.283 3.025-2.145 6.346-2.612 9.613-1.086 7.593-.745 15.15 3.16 21.954 5.582 9.72 14.324 15.15 24.592 18.031 6.166 1.732 10.914-.942 12.826-7.261 1.283-4.245 1.678-8.769 2.468-13.176l-.009.009zm-14.51 321.292c4.182.377 7.395.745 10.626.943 3.68.215 7.37.367 11.058.367 1.607 0 2.289.44 2.639 2.173.485 2.36 1.185 4.756 2.253 6.893 4.541 9.074 16.757 10.07 22.78 1.965 3.661-4.936 5.42-10.788 7.476-16.505 3.5-9.712 7.01-19.414 10.51-29.117.143-.395.251-.798.52-1.642-2.216 1.517-3.994 2.827-5.87 4.003-8.086 5.053-16.774 7.782-26.324 7.144-16.335-1.077-24.988-13.911-24.279-28.793.71-14.638 7.989-25.903 18.077-35.443 9.882-9.344 21.837-14.648 34.672-17.96 16.236-4.192 32.715-5.682 49.391-4.003 2.54.251 5.089.969 7.495 1.858 6.48 2.396 9.145 7.638 7.853 14.648-1.301 7.036-4.47 13.238-8.168 19.126-6.184 9.846-12.745 19.423-18.965 29.242-8.643 13.642-14.791 28.586-20.697 43.638-3.303 8.41-6.929 16.623-12.215 24.018-14.074 19.665-51.384 22.807-64.99-9.675-1.643-3.922-2.47-8.213-3.842-12.889v.009zm85.804-94.834l-.054.234c-1.84.152-3.689.188-5.51.457-12.943 1.948-23.336 8.572-31.657 18.804-4.443 5.466-8.194 11.372-9.756 18.471-.7 3.177-.898 6.382.799 9.344 2.396 4.182 6.435 4.828 10.59 4.828 10.314 0 18.768-4.568 26.191-11.605 5.924-5.618 10.537-12.332 14.908-19.198a71.255 71.255 0 006.238-12.261c1.48-3.805-.135-6.632-3.94-7.736-2.522-.727-5.197-.916-7.8-1.338h-.009zm45.214-333.175c-1.903 2.953-3.41 5.879-5.439 8.33-8.805 10.644-22.42 11.165-32.177 1.364-7.718-7.764-11.668-17.529-13.445-28.255-3.051-18.345-1.768-36.395 5.18-53.672 6.758-16.811 18.883-27.537 36.08-31.827 12.368-3.087 20.949 1.92 25.652 14.747 3.006 8.212 4.119 16.81 4.721 25.508 1.31 19.027.26 38.037-.611 57.038-.637 13.75-1.669 27.492-3.015 41.179-1.185 12.063-3.375 23.982-8.329 35.121-2.558 5.744-5.843 11.012-11.166 14.423-7.961 5.107-16.281 4.425-24.341.458-12.045-5.942-19.064-16.497-23.345-29.152-1.283-3.779-1.84-7.827-2.666-11.767-.152-.709-.018-1.472-.018-2.378.647.045 1.14.036 1.616.125 6.238 1.176 12.458 2.433 18.714 3.519 1.463.251 1.947.861 2.109 2.315.493 4.506 1.553 8.85 4.075 12.656 1.884 2.836 4.442 4.613 7.754 5.205 4.012.718 7.028-.79 9.29-4.245 3.357-5.125 4.685-11.004 5.744-16.919 2.54-14.118 3.133-28.434 3.743-42.74.009-.288-.072-.575-.135-1.041l.009.008zm1.122-48.009c-.179-4.11-.072-8.257-.61-12.314-.611-4.658-1.382-9.37-2.827-13.804-2.038-6.274-6.535-8.14-12.503-5.762-1.625.646-3.195 1.597-4.56 2.72-4.945 4.056-7.072 9.818-8.517 15.886-2.567 10.77-2.729 21.711-1.93 32.697.377 5.116 1.194 10.16 3.491 14.782 2.63 5.287 6.983 7.477 12.054 5.7 2.298-.808 4.542-2.235 6.364-3.905 3.455-3.159 5.268-7.458 6.507-12 2.145-7.853 2.576-15.895 2.531-24.009v.01zM22.29 326.469c2.324 2.638 4.613 5.205 6.875 7.799 2.468 2.836 4.864 5.735 7.395 8.509.987 1.077.916 1.777.027 2.863-1.804 2.208-3.653 4.416-5.134 6.857-2.917 4.811-2.71 9.343.297 13.176 2.342 2.98 5.51 3.931 9.074 3.806 7.512-.27 13.965-3.591 20.078-7.701 10.169-6.84 18.202-15.914 25.014-26.199.161-.243.242-.548.449-1.024-.395.054-.682.018-.889.135-10.896 6.13-21.19 1.714-27.662-8.823-4.883-7.943-6.669-16.9-7.459-26.073-1.409-16.416-.071-32.599 4.695-48.387 1.687-5.582 4.02-10.851 8.006-15.114 6.3-6.732 14.199-7.934 22.69-6.543 7.575 1.247 14.71 3.94 21.334 7.925 10.546 6.337 15.814 16.255 17.6 28.425 2.325 15.86-.188 31.172-5.367 46.062-7.135 20.517-17.789 38.818-33.307 53.798-10.008 9.667-21.389 17.026-34.816 20.491-10.016 2.585-19.925 2.576-29.286-2.657-12.88-7.198-17.844-20.356-13.158-34.788 2.62-8.069 7.153-15.016 12.314-21.541.26-.332.664-.548 1.203-.987l.026-.009zm84.835-50.702c-.341-2.558-.557-5.763-1.248-8.859-1.059-4.784-3.572-8.652-7.764-11.183-7.602-4.578-14.172-2.675-17.941 5.537-5.269 11.48-7.872 23.731-9.012 36.315-.457 5.062.018 10.07 2.594 14.603 4.614 8.113 13.454 9.514 19.98 3.006 1.93-1.929 3.697-4.191 4.999-6.614 5.358-9.981 7.575-20.868 8.383-32.814l.009.009zm102.256-18.121c-.512 20.985-4.12 41.395-9.909 61.428-4.47 15.464-10.241 30.354-18.651 44.042-9.963 16.209-22.654 29.251-40.255 36.422-10.142 4.138-20.643 6.202-31.602 4.972a19.78 19.78 0 01-2.612-.466c-7.97-1.966-11.371-7.468-8.805-15.528 1.787-5.601 4.354-10.986 7.01-16.236 6.902-13.643 14.352-26.998 20.994-40.766 7.539-15.645 12.718-32.303 18.148-48.835 4.766-14.496 9.388-29.072 16.757-42.463 4.416-8.033 9.765-15.312 17.681-20.006 2.908-1.723 6.086-3.124 9.308-4.066 6.094-1.768 11.255.467 14.764 5.897 3.887 6.013 5.296 12.871 6.059 19.88.565 5.215.763 10.484 1.113 15.725zm-18.409 2.567c-.116-1.939-.143-3.922-.377-5.888-.233-1.965-.493-3.949-1.05-5.834-1.714-5.789-5.618-7.198-10.591-3.958-.493.323-.969.691-1.427 1.077-4.541 3.797-7.028 9.083-8.841 14.522-4.003 12.018-7.593 24.18-11.192 36.342-4.488 15.168-9.379 30.175-15.815 44.589-4.604 10.313-9.576 20.437-14.181 30.75-1.31 2.935-2.172 6.166-2.728 9.352-.53 3.061.978 4.694 3.994 5.125 1.014.144 2.064.144 3.087.045 5.619-.529 10.466-2.998 14.882-6.489 7.754-6.13 13.391-14.127 18.273-22.708 10.125-17.78 16.291-37.113 20.778-57.092 2.944-13.095 5.009-26.307 5.197-39.833h-.009zm-207.23 187.899c-5.547-2.459-10.915-4.846-16.722-7.422 4.12-5.484 7.8-10.394 11.462-15.276 2.45 1.014 4.595 2.028 6.821 2.791 6.804 2.316 13.742 2.486 20.787 1.4 1.373-.215 2.935-.027 4.255.431 4.739 1.651 9.415 3.509 14.423 5.403-39.931 40.757-54.337 90.086-46.205 147.259-1.077-.197-1.858-.233-2.567-.494-6.615-2.387-13.212-4.819-19.827-7.216-1.49-.538-2.145-1.463-2.306-3.168-2.002-21.245-1.158-42.328 3.563-63.133 4.846-21.361 13.382-41.08 25.454-59.147.332-.494.61-1.015.862-1.446v.018zm66.853-259.523c-5.484-2.665-10.68-5.178-15.868-7.709-2.935-1.428-5.807-2.998-8.796-4.282-1.544-.664-1.885-1.561-1.715-3.141 1.598-14.836 3.303-29.664 4.677-44.518 1.938-21.092 3.626-42.202 5.403-63.303.08-.97.009-1.948.009-3.186-1.589-.09-3.115-.063-4.613-.27-4.372-.61-8.742-1.265-13.096-2.028-.583-.099-1.498-.979-1.48-1.454.287-5 .736-9.999 1.148-15.133 2.253.117 4.362.27 6.48.315 7.073.152 13.59-1.517 19.244-6.167.709-.583 1.876-.763 2.836-.772 3.985-.035 7.97.171 11.946.063 1.876-.053 2.441.548 2.37 2.46-.826 21.469-1.275 42.965-2.46 64.416-1.265 23.04-3.195 46.035-4.828 69.056-.314 4.407-.584 8.814-.898 13.221-.054.718-.206 1.427-.359 2.45v-.018zm72.078 564.443c.449-2.863.835-5.313 1.212-7.772 2.935-19.136 2.234-38.244-1.858-57.048-4.093-18.785-9.137-37.355-13.769-56.015-.655-2.639-1.355-5.269-2.055-7.952a10818.43 10818.43 0 01-16.308 7.485c-.395-1.05-.745-1.768-.934-2.531-1.068-4.434-2.064-8.894-3.177-13.319-.323-1.302 0-1.957 1.176-2.46 8.257-3.554 15.294-8.804 20.913-16.048.394-.502.96-1.032 1.534-1.184 5.278-1.382 10.582-2.675 16.237-4.093.206 1.786.413 3.321.565 4.865 1.338 13.14 4.228 25.956 7.279 38.764 3.994 16.784 8.195 33.532 11.596 50.451 3.635 18.103 4.165 36.458 1.697 54.839-.252 1.858-.979 2.917-2.774 3.599-6.3 2.388-12.538 4.982-18.794 7.495-.727.287-1.463.538-2.549.942l.009-.018z"/></g></svg>