<svg width="130" height="36" viewBox="0 0 130 36" fill="none" xmlns="http://www.w3.org/2000/svg"><g clip-path="url(#clip0_1669_94)" fill="#7757FF"><path d="M12.3 26.82c0 1.237-.13 2.41-.388 3.516-.258 1.106-.718 2.076-1.383 2.912-.666.836-1.563 1.507-2.695 2.002-1.133.498-2.562.746-4.284.746a17.62 17.62 0 01-1.771-.11 10.19 10.19 0 01-1.771-.325l.445-6.848a5.362 5.362 0 001.364.184c.639 0 1.125-.176 1.46-.529.33-.352.497-.952.497-1.802v-9.87c0-1 .54-1.922 1.418-2.424l7.115-4.063v16.608l-.007.003z"/><path d="M19.26.363h-7.374l.178 10.27 6.37-4.19a2.02 2.02 0 00.913-1.72l-.088-4.36zm17.567 17.519c0 1.653-.3 3.119-.904 4.408a9.801 9.801 0 01-2.437 3.26 10.587 10.587 0 01-3.546 2.021 12.929 12.929 0 01-4.23.694c-1.479 0-2.851-.233-4.193-.694a10.454 10.454 0 01-3.527-2.02c-1.011-.885-1.817-1.972-2.417-3.26-.605-1.287-.905-2.756-.905-4.409 0-1.652.3-3.077.905-4.351.604-1.274 1.41-2.35 2.417-3.223a10.38 10.38 0 013.527-1.987c1.342-.45 2.74-.675 4.192-.675s2.885.225 4.23.675c1.343.45 2.525 1.11 3.547 1.987a9.517 9.517 0 012.437 3.223c.604 1.274.904 2.725.904 4.351zM25.71 14.75c-.936 0-1.692.315-2.273.948a3.19 3.19 0 00-.867 2.223c0 .9.296 1.664.886 2.294.589.633 1.353.948 2.288.948.935 0 1.699-.315 2.288-.948.589-.63.885-1.395.885-2.294 0-.85-.3-1.59-.904-2.223-.605-.63-1.372-.948-2.307-.948h.003zm34.492 3.132c0 1.653-.3 3.119-.904 4.408a9.801 9.801 0 01-2.437 3.26 10.587 10.587 0 01-3.546 2.021 12.929 12.929 0 01-4.23.694c-1.479 0-2.851-.233-4.193-.694a10.454 10.454 0 01-3.527-2.02c-1.011-.885-1.817-1.972-2.417-3.26-.605-1.287-.905-2.756-.905-4.409 0-1.652.3-3.077.905-4.351.604-1.274 1.41-2.35 2.417-3.223a10.38 10.38 0 013.527-1.987c1.342-.45 2.74-.675 4.192-.675s2.885.225 4.23.675c1.343.45 2.525 1.11 3.547 1.987 1.023.873 1.832 1.949 2.437 3.223.604 1.274.904 2.725.904 4.351zM49.085 14.75c-.935 0-1.692.315-2.273.948a3.19 3.19 0 00-.867 2.223c0 .9.297 1.664.886 2.294.589.633 1.353.948 2.288.948.935 0 1.699-.315 2.288-.948.589-.63.885-1.395.885-2.294 0-.85-.3-1.59-.904-2.223-.605-.63-1.372-.948-2.307-.948h.003zm13.067-6.373h8.309v2.114h.072c.49-.705 1.22-1.316 2.19-1.84.969-.521 2.079-.784 3.333-.784 1.35 0 2.474.244 3.367.727.897.488 1.608 1.11 2.136 1.874a7.19 7.19 0 011.107 2.568c.209.948.311 1.893.311 2.84V27.53h-8.533V17.331c0-.97-.156-1.65-.46-2.039-.307-.39-.771-.58-1.383-.58a1.68 1.68 0 00-1.384.674c-.357.45-.536 1.098-.536 1.949v10.198h-8.533V8.377h.004zm31.942 10.817v8.34h-8.532V0h8.532v15.697h.11l4.619-7.32h9.897l-6.279 8.632 6.241 10.524h-9.935l-4.542-8.34h-.11z"/><path d="M129.177 17.773c0 1.653-.301 3.118-.905 4.408a9.803 9.803 0 01-2.436 3.26 10.594 10.594 0 01-3.547 2.02 12.921 12.921 0 01-4.23.694 12.7 12.7 0 01-4.192-.693 10.447 10.447 0 01-3.527-2.02c-1.011-.885-1.817-1.972-2.418-3.261-.604-1.286-.904-2.755-.904-4.408 0-1.653.3-3.077.904-4.351.605-1.275 1.41-2.35 2.418-3.224a10.375 10.375 0 013.527-1.986c1.341-.45 2.74-.675 4.192-.675s2.885.225 4.23.675c1.342.45 2.524 1.11 3.547 1.986 1.022.873 1.832 1.95 2.436 3.223.604 1.275.905 2.725.905 4.352zm-11.118-3.133c-.935 0-1.691.314-2.273.948a3.187 3.187 0 00-.866 2.223c0 .899.296 1.664.885 2.293.589.634 1.353.949 2.288.949.935 0 1.699-.315 2.288-.949.59-.63.886-1.394.886-2.293 0-.851-.3-1.59-.905-2.223-.604-.63-1.372-.948-2.307-.948h.004z"/></g><defs><clipPath id="clip0_1669_94"><path fill="#fff" d="M0 0h129.176v36H0z"/></clipPath></defs></svg>