<svg width="179" height="201" viewBox="0 0 179 201" fill="none" xmlns="http://www.w3.org/2000/svg"><path fill="#FF1521" d="M0 0h179v201H0z"/><mask id="a" style="mask-type:alpha" maskUnits="userSpaceOnUse" x="0" y="0" width="179" height="201"><path fill="#FF1521" d="M0 0h179v201H0z"/></mask><g mask="url(#a)"><path d="M178.969 206.485l-.171.287h-19.834c-.063-.108-.126-.207-.18-.314l-9.535-16.443c-.063-.116-.135-.224-.198-.341.099-.161.189-.331.287-.493l9.257-15.958.378-.646h19.834l.171.287v-.87l-.171.287h-19.834c-.126-.215-.252-.43-.369-.645l-9.283-16.004c-.09-.152-.171-.296-.261-.448 3.307-5.702 6.614-11.395 9.922-17.097h19.834l.171.287v-35.36l-.171.287h-19.834a17.599 17.599 0 00-.243-.422l-9.535-16.434-.135-.242c3.307-5.702 6.614-11.395 9.922-17.097h19.834l.171.287v-.87l-.171.287h-19.834c-.09-.161-.189-.322-.279-.484l-9.535-16.443c-.036-.062-.072-.116-.108-.179 3.307-5.702 6.614-11.395 9.922-17.097h19.834l.171.287V0h-20.257c-3.307 5.702-6.615 11.395-9.922 17.097h-19.834s-.018-.027-.027-.045L119.043 0H98.696c-3.307 5.702-6.614 11.395-9.921 17.097H68.94s-.018-.027-.027-.036L59.243.368C59.171.242 59.1.126 59.027 0H38.681c-3.308 5.702-6.615 11.395-9.922 17.097H8.924L-.988 0h-.09v34.921l2.328 4.007c1.626 2.806 3.262 5.622 4.888 8.428l2.535 4.375-3.694 6.365-2.4 4.143-3.657 6.302v.87l3.658 6.303 2.4 4.142 3.693 6.365-3.694 6.366c-.79 1.372-1.59 2.734-2.381 4.106l-3.676 6.339v35.36l2.31 3.989c1.635 2.815 3.27 5.64 4.906 8.455l2.535 4.366-9.751 16.801v.87l2.319 4.008 4.88 8.418 2.543 4.384-9.742 16.802v.439h.08l9.922-17.097H28.76c3.307 5.702 6.605 11.404 9.922 17.097h20.337c.126-.215.252-.439.378-.654l9.535-16.443h19.835c3.307 5.702 6.605 11.404 9.921 17.097h20.347l9.922-17.097h19.834c3.308 5.702 6.606 11.404 9.922 17.097h20.257v-.439zM98.696 103.462c-3.307 5.702-6.614 11.395-9.921 17.097H68.94s-.018-.027-.027-.045l-9.796-16.891c-.027-.053-.063-.107-.09-.161 2.508-4.321 5.015-8.652 7.523-12.973l2.39-4.124h19.835c3.307 5.702 6.605 11.404 9.921 17.097zM66.55 124.979l2.39-4.124h19.835c3.307 5.702 6.605 11.404 9.921 17.097-3.307 5.702-6.614 11.395-9.921 17.098H68.94s-.018-.027-.027-.045l-9.769-16.838c-.045-.071-.08-.143-.126-.215 2.508-4.321 5.015-8.651 7.523-12.973h.009zm31.517 14.632l.881-1.515h19.834c3.308 5.702 6.606 11.404 9.922 17.097-3.307 5.702-6.614 11.395-9.922 17.097H98.948s-.018-.027-.027-.045l-9.796-16.882c-.036-.053-.063-.116-.099-.17 3.01-5.191 6.03-10.391 9.041-15.582zm50.723 15.439h-19.834s-.018-.036-.027-.045l-9.76-16.829a2.643 2.643 0 01-.126-.224c2.543-4.384 5.087-8.777 7.639-13.161l2.283-3.936h19.834c3.308 5.702 6.606 11.404 9.922 17.097-3.307 5.702-6.615 11.396-9.922 17.098h-.009zm0-68.685c3.308 5.702 6.606 11.404 9.922 17.097-3.307 5.702-6.614 11.395-9.922 17.097h-19.834s-.018-.027-.027-.045l-9.796-16.882c-.036-.053-.063-.116-.099-.17 2.543-4.384 5.087-8.777 7.639-13.161l2.283-3.936h19.834zm-30.008 16.954H98.948s-.018-.027-.027-.045c0 0-9.85-16.972-9.895-17.053 2.247-3.864 9.922-17.097 9.922-17.097h19.834a6776.692 6776.692 0 009.922 17.097c-3.307 5.702-6.614 11.395-9.922 17.098zM67.871 19.24l1.07-1.847h19.834a6512.824 6512.824 0 009.921 17.097c-3.307 5.702-6.614 11.395-9.921 17.098H68.94s-.018-.027-.027-.045l-9.796-16.891c-.027-.054-.063-.108-.09-.162l8.844-15.25zm31.077 15.394h19.834c3.308 5.702 6.606 11.404 9.922 17.097-3.307 5.702-6.614 11.395-9.922 17.097H98.948s-.036-.072-.063-.107l-9.76-16.82a1.682 1.682 0 01-.099-.17c3.308-5.702 6.615-11.395 9.922-17.097zm49.842 16.954h-19.834s-.018-.027-.027-.045l-9.796-16.882c-.036-.054-.063-.117-.099-.17l8.951-15.44.962-1.658h19.834a6776.692 6776.692 0 009.922 17.097c-3.307 5.702-6.614 11.395-9.922 17.098h.009zm-139.866 0L-.988 34.49l9.912-17.097H28.76c3.244 5.595 6.489 11.198 9.742 16.792l.18.305-.18.305a10243.19 10243.19 0 00-9.742 16.793H8.924zm30.008-16.954h19.835c3.262 5.621 6.515 11.242 9.778 16.864l.135.233-.36.619c-3.19 5.495-6.372 10.991-9.562 16.487H38.923s-.045-.072-.063-.107L29.1 51.9c-.027-.053-.063-.107-.09-.161 3.308-5.702 6.615-11.395 9.922-17.097v-.01zm-3.244 40.085l3.244-5.595h19.835c3.271 5.648 6.542 11.288 9.823 16.936l.09.161-.135.233a14643.07 14643.07 0 00-9.778 16.865H38.932s-.018-.036-.027-.045l-9.76-16.829c-.045-.071-.08-.143-.125-.215 2.22-3.837 4.448-7.665 6.668-11.502v-.01zM-.988 103.462l9.921-17.097h19.835l9.814 16.918.099.179-.18.305c-3.253 5.594-6.498 11.198-9.742 16.792H8.924l-9.912-17.097zm9.921 51.588l-9.921-17.098 9.921-17.097h19.835c3.244 5.595 6.489 11.198 9.742 16.792l.18.305-.153.26a16226.37 16226.37 0 00-9.77 16.838H8.925h.01zm20.374-.341l9.634-16.613h19.835c3.28 5.657 6.56 11.314 9.85 16.971l.072.126-.171.296c-3.254 5.603-6.498 11.198-9.751 16.801H38.94l-9.697-16.711-.224-.386c.09-.161.188-.323.278-.484h.01zm38.42 36.651c-2.984 5.137-5.959 10.283-8.942 15.421H38.95l-9.733-16.784a11.374 11.374 0 01-.18-.314c.081-.143.171-.287.252-.43l9.67-16.667h19.835c3.253 5.613 6.506 11.225 9.76 16.828l.153.269-.971 1.677h-.01zm51.073 15.421H98.966l-9.814-16.918a3.172 3.172 0 00-.108-.18c2.615-4.518 5.24-9.028 7.855-13.547l2.058-3.55h19.834c3.308 5.702 6.606 11.404 9.922 17.097-3.307 5.702-6.614 11.395-9.922 17.098h.009z" fill="#FF009C"/></g></svg>