<svg width="326" height="329" viewBox="0 0 326 329" fill="none" xmlns="http://www.w3.org/2000/svg"><path fill="#FF1521" d="M0 0h326v329H0z"/><mask id="a" style="mask-type:alpha" maskUnits="userSpaceOnUse" x="0" y="0" width="326" height="329"><path fill="#FF1521" d="M0 0h326v329H0z"/></mask><g mask="url(#a)"><path d="M325.948 379.517l-.314.527h-36.456c-.115-.198-.231-.379-.33-.577l-17.526-30.221c-.115-.215-.247-.412-.363-.627.182-.296.347-.609.529-.906l17.013-29.332.694-1.186h36.456l.313.527v-1.598l-.313.527h-36.456c-.231-.395-.463-.791-.677-1.186l-17.063-29.415c-.166-.28-.314-.543-.48-.823 6.079-10.481 12.158-20.945 18.237-31.425h36.455l.314.527v-64.991l-.314.527h-36.455c-.149-.263-.298-.527-.446-.774l-17.526-30.205-.248-.445c6.079-10.48 12.157-20.944 18.236-31.425h36.456l.313.528v-1.599l-.313.528h-36.456c-.165-.297-.347-.594-.512-.89L271.19 95.361c-.066-.115-.132-.214-.198-.33 6.079-10.48 12.157-20.944 18.236-31.424h36.456l.313.527V0h-37.231c-6.079 10.48-12.158 20.944-18.236 31.425h-36.456s-.033-.05-.05-.083L215.805 0h-37.397c-6.079 10.48-12.158 20.944-18.236 31.424h-36.456s-.033-.049-.049-.065L105.893.676c-.132-.231-.264-.445-.396-.676H68.1c-6.08 10.48-12.158 20.944-18.236 31.424H13.408L-4.812 0h-.165v64.184l4.279 7.366c2.99 5.157 5.996 10.332 8.985 15.49l4.659 8.041-6.79 11.7-4.41 7.613-6.723 11.584v1.599l6.723 11.584 4.41 7.613 6.79 11.7-6.79 11.7c-1.453 2.521-2.923 5.026-4.377 7.547l-6.756 11.65v64.991l4.246 7.333c3.006 5.174 6.012 10.365 9.018 15.539l4.659 8.025-17.923 30.881v1.599l4.262 7.366 8.97 15.473 4.674 8.058-17.906 30.881v.807h.149l18.236-31.425h36.456c6.078 10.481 12.14 20.961 18.236 31.425h37.38c.231-.395.463-.807.694-1.203l17.526-30.222 36.455.001c6.079 10.48 12.141 20.96 18.236 31.424h37.397l18.236-31.424h36.456c6.079 10.48 12.141 20.96 18.236 31.424h37.232v-.807zm-147.54-189.355c-6.079 10.48-12.158 20.944-18.236 31.425h-36.456s-.033-.05-.049-.083l-18.005-31.045c-.05-.099-.116-.198-.165-.297 4.608-7.943 9.217-15.902 13.825-23.844l4.394-7.581h36.456c6.078 10.481 12.141 20.961 18.236 31.425zm-59.086 39.548l4.394-7.58h36.456c6.078 10.481 12.141 20.961 18.236 31.425-6.079 10.48-12.158 20.944-18.236 31.424h-36.456s-.033-.049-.049-.082l-17.956-30.947c-.082-.132-.148-.263-.231-.395 4.609-7.943 9.217-15.902 13.826-23.845h.016zm57.93 26.893l1.618-2.785 36.456.001c6.079 10.48 12.141 20.96 18.236 31.424-6.079 10.48-12.157 20.944-18.236 31.425H178.87s-.033-.05-.049-.083l-18.005-31.029c-.066-.099-.116-.214-.182-.313 5.534-9.541 11.084-19.099 16.618-28.64zm93.228 28.376h-36.456s-.033-.066-.049-.082l-17.939-30.93a5.33 5.33 0 01-.231-.412c4.675-8.058 9.349-16.133 14.04-24.191l4.196-7.234h36.455c6.079 10.481 12.141 20.961 18.236 31.425-6.078 10.48-12.157 20.944-18.236 31.424h-.016zm0-126.241c6.079 10.48 12.141 20.96 18.236 31.424-6.079 10.48-12.157 20.944-18.236 31.425h-36.456s-.033-.05-.049-.083l-18.005-31.029c-.066-.099-.116-.214-.182-.313 4.675-8.058 9.35-16.132 14.041-24.19l4.195-7.235 36.456.001zm-55.154 31.16H178.87s-.033-.049-.049-.082c0 0-18.104-31.194-18.187-31.342 4.13-7.102 18.236-31.425 18.236-31.425h36.456a11868.641 11868.641 0 0018.236 31.425c-6.079 10.48-12.157 20.944-18.236 31.424zM121.751 35.363l1.965-3.395h36.456c6.062 10.48 12.141 20.961 18.236 31.425-6.079 10.48-12.158 20.944-18.236 31.424h-36.456s-.033-.05-.049-.082L105.662 63.69c-.05-.1-.116-.198-.165-.297l16.254-28.03zm57.119 28.294h36.456c6.079 10.48 12.141 20.96 18.236 31.424-6.079 10.48-12.157 20.944-18.236 31.425H178.87s-.066-.132-.115-.198l-17.939-30.914a3.162 3.162 0 01-.182-.313c6.079-10.48 12.158-20.944 18.236-31.425zm91.61 31.16h-36.456s-.033-.05-.049-.082L215.97 63.706c-.066-.099-.116-.214-.182-.313l16.452-28.376 1.768-3.049h36.455c6.063 10.48 12.141 20.961 18.237 31.425-6.079 10.48-12.158 20.944-18.237 31.424h.017zm-257.072 0l-18.22-31.424 18.22-31.425h36.456C55.827 42.251 61.79 52.55 67.769 62.833l.33.56-.33.56a18860.842 18860.842 0 00-17.905 30.864H13.408zm55.154-31.16h36.456c5.996 10.332 11.975 20.663 17.971 30.996l.248.428-.66 1.137c-5.864 10.101-11.712 20.203-17.576 30.304H68.546s-.083-.132-.116-.198l-17.939-30.93c-.05-.099-.115-.198-.165-.297 6.079-10.48 12.157-20.944 18.236-31.424v-.017zM62.6 137.332l5.963-10.283h36.456a28383.3 28383.3 0 0018.054 31.128l.165.297-.248.428c-5.996 10.332-11.992 20.664-17.971 30.996H68.562s-.033-.066-.05-.082l-17.938-30.93c-.083-.132-.149-.264-.231-.396 4.08-7.052 8.176-14.089 12.256-21.142v-.016zm-67.41 52.83l18.236-31.425H49.88l18.038 31.095.182.33-.33.56c-5.98 10.283-11.943 20.582-17.906 30.865H13.408l-18.22-31.425zm18.236 94.817L-4.81 253.555l18.236-31.425H49.88c5.963 10.283 11.926 20.582 17.906 30.865l.33.56-.28.478c-5.997 10.315-11.976 20.631-17.956 30.946H13.408h.017zm37.446-.626l17.708-30.535h36.455a29490.682 29490.682 0 0018.104 31.194l.132.231-.314.544c-5.979 10.299-11.942 20.581-17.922 30.881H68.579l-17.823-30.716c-.133-.231-.281-.478-.413-.709.165-.297.346-.593.512-.89h.016zm70.615 67.364c-5.484 9.443-10.951 18.901-16.435 28.343H68.595l-17.889-30.847a23.3 23.3 0 01-.33-.577c.148-.264.314-.527.462-.791l17.774-30.634h36.455c5.98 10.316 11.959 20.631 17.939 30.93l.281.495-1.784 3.081h-.017zm93.873 28.343h-36.456l-18.037-31.095c-.067-.115-.133-.23-.199-.329 4.807-8.305 9.63-16.594 14.437-24.899l3.783-6.526h36.455c6.079 10.481 12.141 20.961 18.236 31.425-6.078 10.48-12.157 20.944-18.236 31.424h.017z" fill="#FF009C"/></g></svg>