<svg width="392" height="896" viewBox="0 0 392 896" fill="none" xmlns="http://www.w3.org/2000/svg"><path fill="#FF1521" d="M0 0h391.957v895.526H0z"/><mask id="a" style="mask-type:alpha" maskUnits="userSpaceOnUse" x="0" y="0" width="392" height="896"><path fill="#FF1521" d="M0 0h391.957v895.526H0z"/></mask><g mask="url(#a)"><path d="M584.751 893.566l-.741 1.249h-86.129c-.273-.469-.546-.898-.78-1.366l-41.406-71.538c-.273-.507-.585-.975-.858-1.482.429-.702.819-1.443 1.249-2.146l40.195-69.432 1.639-2.808h86.129l.741 1.248v-3.783l-.741 1.248H497.92a105.503 105.503 0 01-1.6-2.809l-40.312-69.627c-.391-.663-.742-1.287-1.132-1.95 14.361-24.808 28.722-49.578 43.083-74.386h86.129l.741 1.248V443.39l-.741 1.248h-86.129a76.668 76.668 0 00-1.053-1.833L455.5 371.306l-.585-1.054c14.361-24.808 28.722-49.577 43.083-74.385h86.129l.741 1.248v-3.784l-.741 1.248h-86.129c-.39-.702-.819-1.404-1.209-2.106l-41.406-71.538c-.156-.273-.312-.507-.468-.78 14.361-24.809 28.722-49.578 43.083-74.386h86.129l.741 1.248V-4.797h-87.962c-14.361 24.808-28.723 49.577-43.084 74.386h-86.128s-.078-.117-.117-.195L324.532-4.797H236.18c-14.361 24.808-28.723 49.577-43.084 74.386h-86.128s-.078-.117-.117-.156L64.86-3.197c-.312-.547-.624-1.054-.937-1.6h-88.352C-38.79 20.01-53.152 44.78-67.513 69.589h-86.128l-43.044-74.386h-.391v151.931l10.108 17.436c7.063 12.209 14.166 24.457 21.229 36.666l11.005 19.036-16.039 27.694-10.42 18.021-15.883 27.422v3.784l15.883 27.422 10.42 18.021 16.039 27.694-16.039 27.695c-3.434 5.968-6.907 11.897-10.341 17.865l-15.962 27.578V597.31l10.03 17.358c7.102 12.248 14.205 24.536 21.307 36.784l11.005 18.996-42.342 73.099v3.783l10.069 17.436 21.19 36.627 11.044 19.075-42.303 73.098v1.912h.352l43.083-74.386h86.128c14.362 24.808 28.684 49.616 43.084 74.386h88.313c.547-.936 1.093-1.912 1.64-2.848l41.405-71.538h86.128c14.361 24.808 28.684 49.616 43.084 74.386h88.352l43.084-74.386h86.128c14.361 24.808 28.683 49.616 43.084 74.386h87.962v-1.912zM236.18 445.34c-14.361 24.808-28.723 49.578-43.084 74.386h-86.128s-.078-.117-.117-.195l-42.537-73.489c-.117-.234-.273-.468-.39-.702 10.887-18.801 21.775-37.641 32.663-56.442l10.381-17.944h86.128c14.361 24.809 28.684 49.617 43.084 74.386zM96.587 538.956l10.381-17.943h86.128c14.361 24.809 28.684 49.617 43.084 74.386-14.361 24.808-28.723 49.578-43.084 74.386h-86.128s-.078-.117-.117-.195l-42.42-73.255c-.195-.312-.352-.624-.547-.936 10.888-18.801 21.776-37.641 32.664-56.443h.04zm136.861 63.659l3.824-6.592h86.129c14.361 24.808 28.683 49.617 43.083 74.386-14.361 24.808-28.722 49.577-43.083 74.386h-86.129s-.078-.117-.117-.195l-42.537-73.45c-.156-.234-.273-.507-.429-.741 13.073-22.585 26.186-45.209 39.259-67.794zm220.257 67.17h-86.128s-.078-.156-.117-.195l-42.381-73.216a12.253 12.253 0 01-.547-.975c11.044-19.074 22.089-38.188 33.172-57.262l9.912-17.124h86.128c14.361 24.809 28.683 49.617 43.084 74.386-14.362 24.808-28.723 49.578-43.084 74.386h-.039zm0-298.831c14.361 24.809 28.683 49.617 43.084 74.386-14.362 24.808-28.723 49.578-43.084 74.386h-86.128s-.078-.117-.117-.195l-42.537-73.45c-.156-.234-.274-.507-.43-.741 11.044-19.074 22.089-38.187 33.172-57.262l9.912-17.124h86.128zm-130.304 73.762h-86.129s-.078-.117-.117-.195c0 0-42.771-73.84-42.966-74.191 9.756-16.812 43.083-74.385 43.083-74.385h86.129a28297.52 28297.52 0 0043.083 74.385c-14.361 24.809-28.722 49.578-43.083 74.386zM102.324 78.911l4.644-8.035h86.128a28413.005 28413.005 0 0043.084 74.386c-14.361 24.808-28.723 49.577-43.084 74.385h-86.128s-.078-.117-.117-.195l-42.537-73.488c-.117-.234-.273-.468-.39-.702l38.4-66.35zm134.948 66.975h86.129c14.361 24.808 28.683 49.616 43.083 74.386-14.361 24.808-28.722 49.577-43.083 74.385h-86.129s-.156-.312-.273-.468l-42.381-73.176a7.245 7.245 0 01-.429-.741c14.361-24.809 28.722-49.578 43.083-74.386zm216.433 73.761h-86.128s-.078-.117-.117-.195l-42.537-73.449c-.156-.234-.274-.507-.43-.741l38.869-67.17 4.176-7.216h86.128a28132.198 28132.198 0 0043.084 74.386c-14.362 24.808-28.723 49.577-43.084 74.385h.039zm-607.346 0l-43.044-74.385 43.044-74.386h86.128c14.088 24.34 28.176 48.719 42.303 73.059l.78 1.327-.78 1.326a44506.36 44506.36 0 00-42.303 73.059h-86.128zm130.305-73.761h86.128c14.166 24.457 28.293 48.914 42.459 73.371l.585 1.015-1.561 2.691c-13.854 23.911-27.668 47.822-41.522 71.733h-86.128s-.196-.312-.274-.468l-42.38-73.215c-.118-.234-.274-.468-.391-.702 14.361-24.809 28.722-49.578 43.084-74.386v-.039zm-14.088 174.399l14.088-24.34h86.128a71585.607 71585.607 0 0042.654 73.683l.39.702-.585 1.015a70781.063 70781.063 0 00-42.46 73.371h-86.127s-.079-.156-.117-.195l-42.382-73.215c-.195-.313-.35-.625-.546-.937 9.64-16.695 19.317-33.35 28.957-50.045v-.039zM-196.685 445.34l43.083-74.386h86.128l42.616 73.606.429.78-.78 1.326c-14.128 24.341-28.216 48.72-42.304 73.06h-86.128l-43.044-74.386zm43.083 224.445l-43.083-74.386 43.083-74.386h86.128c14.088 24.34 28.176 48.72 42.303 73.06l.78 1.326-.663 1.131c-14.166 24.418-28.293 48.837-42.42 73.255h-86.167.039zm88.47-1.482l41.835-72.28H62.83c14.244 24.613 28.488 49.227 42.771 73.84l.312.546-.741 1.287c-14.127 24.379-28.215 48.72-42.342 73.099h-86.128l-42.108-72.709c-.313-.546-.664-1.131-.976-1.677.39-.702.82-1.404 1.21-2.106h.039zM101.7 827.762c-12.957 22.351-25.874 44.741-38.83 67.092h-86.128l-42.264-73.021a50.674 50.674 0 01-.78-1.365c.35-.624.74-1.248 1.092-1.873l41.99-72.513h86.13c14.127 24.418 28.254 48.836 42.381 73.216l.663 1.17-4.214 7.294h-.039zm221.779 67.092h-86.128l-42.616-73.606c-.156-.273-.312-.546-.468-.78 11.356-19.66 22.751-39.28 34.108-58.939l8.936-15.447h86.129c14.361 24.808 28.683 49.616 43.083 74.386-14.361 24.808-28.722 49.577-43.083 74.386h.039z" fill="#FF009C"/></g></svg>