<svg width="252" height="831" viewBox="0 0 252 831" fill="none" xmlns="http://www.w3.org/2000/svg"><g clip-path="url(#clip0_2013_39236)"><path fill="#FFB5B9" d="M-1 0h254v831H-1z"/><path d="M20.215 830.99c-5.208-1.775-10.592-3.123-15.577-5.412-19.573-8.982-31.358-24.986-37.624-45.742-.757-2.513-1.31-5.093-1.94-7.653-.068-.291 0-.611 0-1.155.825.243 1.513.388 2.153.631 7.537 2.939 15.083 5.829 22.561 8.914.97.397 1.97 1.639 2.26 2.696 1.804 6.567 3.773 13.133 8.953 17.701 2.91 2.571 6.382 4.685 9.922 6.198 5.306 2.27 9.738.582 12.813-4.422a27.761 27.761 0 003.113-7.168c3.308-12.202 1.97-24.453.117-37.13-1.183.912-1.998 1.649-2.91 2.231-3.608 2.289-7.585 2.493-11.581 1.756-11.649-2.153-21.513-8.128-30.36-15.927-16.663-14.675-27.487-33.336-34.102-54.733-3.317-10.728-5.345-21.737-4.724-33.046.204-3.802.902-7.731 2.192-11.3 2.93-8.138 8.788-11.242 17.1-9.661 6.538 1.242 12.348 4.326 18.05 7.663 20.108 11.785 36.083 27.992 48.45 48.138 13.094 21.319 21.367 44.462 25.198 69.351 1.678 10.931 2.697 21.891 1.455 32.958-.756 6.683-2.357 13.114-5.363 19.137-4.2 8.4-10.68 13.773-19.613 15.956H20.225l-.01.019zm-49.641-152.407l.194.039c.058.99.067 1.979.174 2.959 1.368 12.114 4.55 23.685 9.874 34.588 3.599 7.371 8.245 13.918 14.86 18.71 5.14 3.724 10.63 6.731 17.168 6.605 3.453-.068 6.062-1.92 6.46-5.393.426-3.686.552-7.614-.195-11.203a124.761 124.761 0 00-9.699-28.593c-4.433-9.254-9.913-17.77-18.312-23.648-3.628-2.541-7.77-4.52-11.94-5.926-3.686-1.241-6.567.892-7.585 4.811-.592 2.279-.689 4.694-1.01 7.051h.01zM85.773 830.99c-1.58-5.073-3.598-10.058-4.636-15.247-2.6-12.988-4.724-26.072-7.11-39.108-2.987-16.353-6.12-32.677-9.059-49.04-1.678-9.322-3.084-18.72-2.23-28.255.28-3.181.853-6.392 1.764-9.437 2.532-8.458 8.4-13.512 16.48-15.655 14.636-3.899 28.943-3.54 42.309 4.762 8.593 5.345 14.646 13.065 18.855 22.396.097.204.068.466.126.941-.708.272-1.416.611-2.153.815-5.548 1.523-11.125 2.929-16.644 4.578-2.027.601-2.9-.175-4.006-1.804-2.124-3.143-4.287-6.392-6.993-8.962-4.443-4.2-9.991-4.831-15.733-3.512-5.121 1.174-7.905 4.899-8.215 9.981-.34 5.548-.281 11.222.465 16.722 1.087 7.982 2.95 15.849 4.491 23.763.107.534.36 1.038.427 1.213 2.212-2.774 4.113-6.033 6.78-8.332 9.787-8.458 28.138-9.185 39.767-1.93 9.894 6.169 16.072 15.432 19.768 26.44 6.13 18.264 6.043 36.509-2.202 54.104-2.609 5.557-6.625 10.407-10 15.577H85.802l-.029-.01zm54.259-39.855c-.204-9.689-1.407-18.167-4.957-26.188-4.617-10.427-13.608-14.966-23.841-11.872-3.802 1.144-6.625 3.511-8.37 7.197-2.348 4.956-2.881 10.31-2.571 15.655.505 8.787 1.31 17.565 2.25 26.314.641 5.965 1.533 11.95 4.443 17.323 2.541 4.695 6.431 6.906 11.659 6.557 5.422-.359 9.728-2.929 13.113-7.187 6.654-8.38 8.08-18.39 8.274-27.799zm75.091-245.385c-6.082-3.831-8.312-9.02-6.528-15.616.805-2.978 2.037-5.936 3.618-8.555 8.167-13.608 19.224-24.287 32.057-33.075 10.688-7.323 22.25-12.434 35.034-14.345 7.323-1.096 14.675-1.271 21.814.902 14.588 4.452 20.737 17.013 15.383 32.221-6.285 17.847-18.312 29.991-35.762 36.237-1.639.582-3.297 1.106-5.286 1.766.767.63 1.271 1.086 1.804 1.474 7.11 5.15 9.195 12.318 7.624 20.815-1.707 9.224-5.868 17.362-10.863 25.073-9.156 14.132-22.338 22.289-37.818 26.828-11.93 3.502-24.132 5.442-36.557 5.577-7.217.078-14.365-.708-20.97-4.064-11.223-5.713-16.237-16.372-13.744-29.049 2.686-13.676 10.465-23.774 21.125-31.795 7.934-5.975 16.751-10.136 26.043-13.288.824-.281 1.639-.601 3.026-1.116v.01zm25.015 7.672c-10.776.456-20.466 3.754-28.74 10.893-8.147 7.012-13.802 15.732-15.616 26.693-1.348 8.137 2.289 13.685 10.175 14.927 10.766 1.688 20.767-.669 29.506-7.692 5.926-4.752 9.922-11.086 13.404-17.808 2.512-4.869 4.937-9.787 5.645-15.383.67-5.306-1.416-8.865-6.411-10.243-2.59-.708-5.306-.94-7.963-1.387zm11.106-17.042c10.62-.378 19.67-4.161 26.886-12.25 5.335-5.984 9.913-12.531 11.901-20.553 1.591-6.431-1.047-10.175-7.449-10.989-6.042-.776-11.726.533-17.08 3.433-8.187 4.443-14.404 11.135-19.467 18.943-2.454 3.783-4.656 7.886-6.169 12.154-1.474 4.151.505 7.119 4.588 8.137 2.221.553 4.53.767 6.79 1.135v-.01zM57.478 300.161c-19.739.359-34.355-10.66-48.468-22.474-9.137-7.643-15.888-17.303-19.34-29.117-3.201-10.961-2.872-21.843 1.483-32.396 5.025-12.173 15.936-18.449 29.67-17.411 9.807.747 18.788 4.239 27.46 8.739 12.434 6.451 23.424 14.831 31.484 26.684 14.578 21.445 17.41 44.888 9.932 69.69-3.948 13.104-10.068 25.102-19.408 35.083-7.575 8.099-16.509 13.967-26.994 17.167-10.66 3.259-21.009 2.386-30.853-2.997-11.368-6.217-21.805-13.734-29.341-24.782-6.382-9.35-8.235-19.816-6.48-31.047.214-1.358.796-1.989 2.086-1.514 8.545 3.153 17.09 6.315 25.597 9.583.504.194.698 1.339.97 2.076.068.184-.107.466-.156.708-2.337 11.067 1.785 18.662 12.794 24.016 4.093 1.998 8.438 1.445 12.59-.213 7.885-3.133 13.744-8.943 18.477-15.898 2.91-4.287 5.16-9.059 7.663-13.647.407-.747.601-1.62.834-2.27v.02zm9.428-39.971c.252-20.932-12.416-34.947-29.186-38.963-6.48-1.552-11.853 1.164-14.5 7.44-1.387 3.268-2.319 6.857-2.823 10.388-1.174 8.205-.805 16.372 3.414 23.724 6.033 10.505 15.48 16.373 26.577 19.486 6.663 1.872 11.794-1.018 13.86-7.846 1.387-4.588 1.814-9.477 2.667-14.239l-.01.01zm248.22-219.342c-7.731-.553-15.258-1.087-22.969-1.64-.262-2.104-.436-4.306-.814-6.469-.873-5.053-2.862-9.428-8.022-11.018-5.334-1.64-10.291-.466-14.549 3.288-4.471 3.947-6.76 9.34-8.594 14.908-3.938 11.93-5.538 24.345-6.915 36.8-.194 1.794-.32 3.588-.107 5.538 1.465-2.377 2.832-4.821 4.413-7.11 4.966-7.168 11.523-11.727 20.107-12.92 9.137-1.27 17.255 2.91 22.163 11.416 3.851 6.674 5.432 14.036 6.14 21.65 1.203 12.89-.039 25.655-1.95 38.37-1.813 12.057-4.442 23.919-8.632 35.355-4.782 13.045-11.261 25.015-22.28 33.531a52.85 52.85 0 01-13.356 7.488c-9.728 3.705-17.1.329-21.911-9.215-4.161-8.244-5.868-17.207-7.022-26.295-2.784-21.969-2.454-44.026-1.057-66.053.882-14.035 2.008-28.07 3.618-42.037 1.649-14.278 4.723-28.264 11.125-41.223 5.335-10.795 12.813-19.34 24.229-23.278 23.783-8.196 44.443 5.868 46.353 30.873.194 2.61.03 5.238.03 8.05v-.01zm-65.879 101.766c.262 6.246.378 12.503.834 18.73.398 5.422 1.155 10.824 3.676 15.722 2.435 4.734 6.451 6.159 10.767 3.327 2.619-1.717 5.296-3.967 6.828-6.663 2.561-4.472 4.772-9.331 6.179-14.307 4.461-15.723 5.955-31.921 6.227-48.245.087-5.616-.388-11.193-2.415-16.489-2.037-5.334-6.276-8.157-11.164-7.158-2.134.437-4.336 1.29-6.15 2.512-6.198 4.2-8.758 10.902-10.698 17.867-3.162 11.328-3.725 22.987-4.094 34.704h.01zM51.225 607.4c4.52.407 7.992.805 11.484 1.018 3.977.233 7.963.398 11.95.398 1.736 0 2.473.475 2.851 2.347.524 2.551 1.28 5.141 2.435 7.449 4.908 9.806 18.109 10.883 24.617 2.125 3.957-5.335 5.859-11.659 8.08-17.838 3.783-10.494 7.575-20.979 11.358-31.465.155-.426.271-.863.562-1.775-2.395 1.64-4.316 3.056-6.343 4.326-8.739 5.461-18.128 8.41-28.448 7.721-17.653-1.164-27.004-15.034-26.237-31.116.766-15.819 8.632-27.992 19.534-38.302 10.68-10.098 23.599-15.83 37.469-19.409 17.546-4.53 35.354-6.14 53.376-4.326 2.745.272 5.499 1.048 8.099 2.008 7.003 2.59 9.884 8.254 8.487 15.829-1.407 7.605-4.83 14.307-8.827 20.67-6.683 10.64-13.773 20.989-20.494 31.6-9.341 14.743-15.985 30.893-22.367 47.159-3.57 9.088-7.488 17.963-13.201 25.955-15.209 21.252-55.53 24.647-70.234-10.456-1.774-4.238-2.667-8.874-4.15-13.928v.01zm92.726-102.484l-.058.252c-1.988.165-3.986.204-5.955.495-13.987 2.105-25.219 9.263-34.21 20.32-4.801 5.907-8.856 12.289-10.543 19.961-.757 3.434-.97 6.897.863 10.098 2.59 4.519 6.954 5.218 11.445 5.218 11.145 0 20.282-4.937 28.303-12.542 6.402-6.071 11.387-13.327 16.111-20.747a76.987 76.987 0 006.741-13.249c1.6-4.113-.146-7.168-4.258-8.361-2.726-.786-5.616-.989-8.429-1.445h-.01zm48.862-360.052c-2.056 3.192-3.686 6.354-5.878 9.002-9.515 11.503-24.229 12.066-34.772 1.474-8.342-8.39-12.61-18.943-14.53-30.534-3.298-19.825-1.911-39.331 5.597-58.002 7.303-18.167 20.407-29.758 38.991-34.394 13.366-3.337 22.639 2.075 27.721 15.936 3.249 8.875 4.452 18.167 5.102 27.565 1.416 20.563.281 41.106-.66 61.64-.688 14.86-1.804 29.709-3.259 44.501-1.28 13.036-3.647 25.917-9.001 37.954-2.764 6.207-6.314 11.901-12.066 15.587-8.603 5.519-17.594 4.781-26.305.494-13.016-6.421-20.601-17.827-25.228-31.503-1.387-4.084-1.988-8.458-2.88-12.716-.165-.766-.02-1.591-.02-2.571.699.049 1.232.039 1.746.136 6.741 1.271 13.463 2.629 20.223 3.802 1.581.272 2.105.932 2.28 2.503.533 4.869 1.678 9.563 4.403 13.676 2.037 3.065 4.801 4.985 8.381 5.626 4.335.776 7.594-.854 10.038-4.588 3.628-5.539 5.064-11.892 6.208-18.284 2.745-15.257 3.385-30.727 4.045-46.188.009-.31-.078-.621-.146-1.125l.01.009zm1.212-51.882c-.194-4.442-.077-8.923-.659-13.307-.66-5.034-1.494-10.126-3.056-14.918-2.201-6.78-7.061-8.797-13.511-6.227-1.755.698-3.453 1.727-4.927 2.939-5.344 4.384-7.643 10.611-9.205 17.168-2.774 11.64-2.948 23.463-2.085 35.335.407 5.529 1.29 10.98 3.773 15.975 2.842 5.713 7.546 8.079 13.026 6.159 2.483-.873 4.908-2.415 6.877-4.219 3.734-3.415 5.694-8.061 7.032-12.968 2.318-8.487 2.784-17.178 2.735-25.946v.01zM78.088 363.712c2.512 2.851 4.986 5.625 7.43 8.428 2.667 3.065 5.257 6.198 7.992 9.195 1.067 1.164.99 1.921.03 3.095-1.95 2.386-3.948 4.772-5.549 7.41-3.152 5.199-2.929 10.097.32 14.239 2.532 3.22 5.956 4.248 9.806 4.112 8.119-.291 15.093-3.88 21.698-8.322 10.989-7.391 19.67-17.197 27.032-28.313.175-.261.262-.591.485-1.105-.427.058-.737.019-.96.145-11.775 6.625-22.9 1.853-29.894-9.534-5.276-8.584-7.206-18.264-8.06-28.177-1.523-17.74-.077-35.228 5.073-52.29 1.823-6.033 4.345-11.726 8.652-16.333 6.809-7.275 15.344-8.575 24.52-7.071 8.186 1.348 15.897 4.258 23.055 8.564 11.397 6.848 17.091 17.566 19.021 30.718 2.512 17.139-.204 33.686-5.8 49.778-7.711 22.173-19.225 41.95-35.995 58.138-10.815 10.446-23.113 18.4-37.624 22.144-10.824 2.793-21.532 2.783-31.649-2.871-13.919-7.779-19.282-21.999-14.22-37.595 2.833-8.72 7.731-16.227 13.308-23.279.282-.359.718-.591 1.3-1.067l.03-.009zm91.679-54.792c-.369-2.765-.601-6.227-1.348-9.574-1.145-5.169-3.861-9.35-8.39-12.085-8.216-4.947-15.316-2.891-19.389 5.984-5.694 12.406-8.507 25.646-9.739 39.244-.494 5.471.02 10.883 2.803 15.781 4.986 8.768 14.54 10.282 21.591 3.249 2.086-2.085 3.997-4.529 5.403-7.148 5.79-10.786 8.186-22.551 9.059-35.461l.01.01zM28.808 85.97c-.058 14.296-2.124 27.216-5.849 39.776-2.017 6.8-4.549 13.56-7.837 19.787-6.247 11.853-16.605 17.401-29.477 17.828-14.956.504-29.602-1.698-43.695-6.897-15.16-5.587-22.008-17.488-22.988-33.598-.66-10.932.65-21.698 2.532-32.406 2.87-16.305 6.052-32.561 12.056-47.993 2.24-5.761 5.092-11.406 8.468-16.537 7.71-11.746 18.69-15.888 31.94-12.425C3.754 21.294 25.636 43.65 28.43 78.655c.223 2.794.29 5.597.378 7.304v.01zM.912 69.712C.67 67.016.553 62.875-.116 58.84c-1.92-11.552-7.779-19.855-18.972-23.463-6.945-2.24-12.396-.708-16.217 5.694-2.852 4.781-5.15 10.068-6.79 15.431-4.665 15.258-7.178 31.038-9.505 46.829-1.164 7.905-2.066 15.839-.97 23.851.94 6.857 3.724 12.405 10.281 15.179 4.49 1.901 9.156 2.755 14.025 2.338 3.706-.32 6.945-1.697 9.768-4.19 5.567-4.898 8.496-11.562 10.66-18.429C-2.648 105.552.213 88.55.902 69.723l.01-.01zM280.27 289.337c-.552 22.677-4.452 44.734-10.708 66.383-4.83 16.712-11.067 32.803-20.155 47.595-10.766 17.517-24.481 31.61-43.502 39.36-10.96 4.472-22.309 6.702-34.152 5.374a21.238 21.238 0 01-2.822-.505c-8.613-2.124-12.289-8.07-9.515-16.78 1.93-6.052 4.704-11.872 7.575-17.546 7.459-14.743 15.509-29.176 22.687-44.055 8.147-16.906 13.744-34.908 19.612-52.774 5.15-15.665 10.146-31.416 18.109-45.888 4.772-8.681 10.553-16.547 19.108-21.62 3.142-1.862 6.576-3.375 10.058-4.394 6.586-1.911 12.163.505 15.956 6.373 4.199 6.498 5.722 13.909 6.547 21.484.611 5.635.824 11.329 1.202 16.993zm-19.893 2.774c-.126-2.095-.155-4.238-.408-6.363-.252-2.124-.533-4.267-1.134-6.304-1.853-6.256-6.072-7.779-11.446-4.278-.533.35-1.047.747-1.542 1.164-4.908 4.103-7.594 9.816-9.554 15.694-4.326 12.987-8.205 26.13-12.095 39.273-4.85 16.392-10.136 32.609-17.09 48.187-4.976 11.144-10.35 22.085-15.325 33.23-1.416 3.171-2.348 6.663-2.949 10.106-.572 3.308 1.057 5.073 4.316 5.539 1.096.155 2.231.155 3.337.048 6.072-.572 11.309-3.239 16.082-7.012 8.38-6.625 14.471-15.267 19.748-24.54 10.94-19.214 17.604-40.107 22.454-61.698 3.181-14.151 5.412-28.429 5.616-43.046h-.01zm7.358 373.999c-7.575 1.28-14.792 2.493-22.309 3.763-.223-1.658-.504-3.074-.582-4.5-.174-3.201-.029-6.44-.417-9.602-.349-2.794.864-3.473 3.182-3.861 7.74-1.3 15.247-3.492 22.425-6.799.436-.204.941-.32 1.3-.621 5.674-4.675 12.289-3.55 18.768-3.269 2.919.127 5.829.369 8.235.534 0 5.529.058 10.679-.01 15.839-.204 14.52 1.532 28.875 3.463 43.211 2.832 21.028 6.246 42.018 5.79 63.327-.223 10.505-1.542 20.99-2.328 31.494-.106 1.494-.717 1.862-2.134 1.833-7.245-.155-14.5-.232-21.755-.223-1.669 0-2.251-.32-1.998-2.201 2.424-18.749 1.804-37.498-.883-56.141-2.396-16.595-5.373-33.104-7.934-49.67-1.019-6.567-1.601-13.211-2.386-19.816-.126-1.038-.272-2.076-.427-3.288v-.01zM36.43 495.168c-5.994-2.658-11.794-5.238-18.07-8.021 4.452-5.927 8.429-11.232 12.386-16.509 2.648 1.096 4.966 2.192 7.372 3.017 7.352 2.502 14.85 2.686 22.464 1.513 1.484-.233 3.171-.029 4.597.465 5.121 1.785 10.175 3.793 15.587 5.839-43.153 44.045-58.72 97.353-49.933 159.139-1.163-.214-2.007-.253-2.773-.534-7.149-2.58-14.278-5.209-21.427-7.798-1.61-.582-2.318-1.581-2.492-3.424-2.163-22.959-1.252-45.743 3.85-68.226 5.238-23.084 14.462-44.394 27.508-63.919.359-.533.66-1.096.931-1.561v.019zm72.246-280.458c-5.926-2.881-11.542-5.597-17.148-8.332-3.172-1.542-6.276-3.24-9.506-4.627-1.668-.717-2.037-1.687-1.853-3.395 1.727-16.033 3.57-32.056 5.054-48.109 2.095-22.793 3.918-45.606 5.839-68.41.087-1.047.01-2.104.01-3.443-1.717-.097-3.366-.068-4.986-.29-4.724-.66-9.447-1.368-14.151-2.193-.63-.106-1.62-1.057-1.6-1.571.31-5.403.795-10.805 1.24-16.353 2.435.126 4.715.29 7.004.34 7.643.164 14.685-1.64 20.795-6.664.767-.63 2.027-.825 3.065-.834 4.307-.04 8.613.184 12.91.068 2.027-.059 2.638.591 2.561 2.657-.892 23.201-1.377 46.431-2.658 69.613-1.367 24.898-3.453 49.748-5.218 74.627-.34 4.762-.631 9.525-.97 14.287-.058.776-.223 1.542-.388 2.648v-.019zm77.892 609.976c.485-3.094.902-5.742 1.31-8.4 3.172-20.679 2.415-41.329-2.008-61.649-4.423-20.301-9.874-40.369-14.879-60.534-.708-2.852-1.464-5.694-2.221-8.594-5.926 2.725-11.63 5.344-17.624 8.089-.427-1.135-.805-1.911-1.009-2.735-1.154-4.792-2.23-9.612-3.433-14.394-.349-1.406 0-2.114 1.27-2.658 8.924-3.841 16.528-9.515 22.6-17.342.427-.543 1.038-1.116 1.659-1.28 5.703-1.494 11.435-2.891 17.546-4.423.223 1.93.446 3.588.611 5.257 1.445 14.2 4.568 28.05 7.866 41.891 4.316 18.138 8.856 36.237 12.532 54.521 3.928 19.563 4.5 39.399 1.833 59.263-.272 2.008-1.057 3.152-2.997 3.89-6.809 2.58-13.55 5.383-20.311 8.099-.785.31-1.581.582-2.754 1.018l.009-.019z" stroke="#800029" stroke-width="2.272" stroke-miterlimit="10"/></g><defs><clipPath id="clip0_2013_39236"><path fill="#fff" d="M0 0h252v831H0z"/></clipPath></defs></svg>